<svg width="27" height="27" viewBox="0 0 27 27" fill="none" xmlns="http://www.w3.org/2000/svg">
<path d="M12.5122 5.73963C12.3458 5.2865 12.0123 4.91423 11.5801 4.69919C11.1479 4.48414 10.6498 4.44262 10.188 4.58313C7.99875 5.25813 6.46875 7.13688 6.79725 9.31038C7.16692 11.7221 7.98421 14.0435 9.207 16.1549C10.4185 18.2606 12.0072 20.1254 13.8938 21.6561C15.5903 23.0286 17.9707 22.6506 19.6493 21.0756C20.0023 20.7443 20.2165 20.2913 20.2487 19.8081C20.2809 19.325 20.1285 18.8476 19.8225 18.4724L18.621 17.0031C18.3803 16.7077 18.0565 16.4914 17.6914 16.3822C17.3263 16.2731 16.9368 16.2762 16.5735 16.3911L13.8015 17.2686L13.3178 16.7691C12.7085 16.1368 12.1754 15.4352 11.7292 14.6789C11.2972 13.9135 10.9602 13.0982 10.7258 12.2511L10.539 11.5874L12.6765 9.61863C12.9593 9.35726 13.1577 9.01744 13.2463 8.64267C13.3349 8.2679 13.3096 7.87522 13.1737 7.51488L12.5122 5.73963ZM9.5265 2.43213C10.5371 2.12293 11.6277 2.21192 12.5748 2.68087C13.5219 3.14982 14.2538 3.96321 14.6205 4.95438L15.2797 6.72738C15.5715 7.5062 15.6246 8.35427 15.4322 9.16338C15.2398 9.97249 14.8108 10.7059 14.1997 11.2701L13.0972 12.2849C13.239 12.6764 13.4303 13.1241 13.6777 13.5584C13.9253 13.9859 14.2133 14.3751 14.4765 14.6924L15.894 14.2424C16.6865 13.9922 17.5358 13.9856 18.3321 14.2235C19.1283 14.4613 19.8349 14.9327 20.3602 15.5766L21.5618 17.0459C22.2295 17.8624 22.5623 18.902 22.493 19.9545C22.4237 21.007 21.9573 21.994 21.1882 22.7159C18.9517 24.8151 15.3 25.6859 12.4808 23.4044C10.3798 21.7004 8.61034 19.6243 7.26075 17.2799C5.89635 14.925 4.98442 12.3358 4.572 9.64563C4.032 6.06138 6.60375 3.33213 9.5265 2.43438" fill="#9747FF"/>
</svg>
