     <svg
                      xmlns="http://www.w3.org/2000/svg"
                      width="77.699"
                      height="77.699"
                      viewBox="0 0 77.699 77.699"
                      fill="black"
                    
                    >
                      <g
                        id="Group_163"
                        data-name="Group 163"
                        transform="translate(0)"
                      >
                        <path
                          id="Path_158"
                          data-name="Path 158"
                          d="M77.7,38.882A38.85,38.85,0,1,1,39.589.007,38.893,38.893,0,0,1,77.7,38.882M38.811,74.989A36.131,36.131,0,1,0,2.721,38.415a36.232,36.232,0,0,0,36.09,36.574"
                          transform="translate(0 0)"
                          style=""
                        ></path>
                        <g
                          id="Group_161"
                          data-name="Group 161"
                          transform="translate(12.225 10.535)"
                        >
                          <g
                            id="Group_162"
                            data-name="Group 162"
                            transform="translate(0 0)"
                          >
                            <path
                              id="Path_139"
                              data-name="Path 139"
                              d="M0,26.582V24.817a2.958,2.958,0,0,0,.095-.346,9.572,9.572,0,0,1,5.772-7.687c.325-.15.45-.28.406-.679a5.706,5.706,0,0,1,6.649-6.247,18.021,18.021,0,0,1,1.968.575A15.2,15.2,0,0,1,31.39.156a15.128,15.128,0,0,1,12.968,15.81c.231.043.417.081.6.113a9.436,9.436,0,0,1,7.453,5.769,21.048,21.048,0,0,1,.835,2.97v1.661a20.933,20.933,0,0,1-.656,2.651,9.665,9.665,0,0,1-9.2,6.3c-.25,0-.5,0-.79,0,0,1.349-.009,2.609.012,3.869a.814.814,0,0,0,.262.472c.91.925,1.822,1.849,2.756,2.75a1.639,1.639,0,0,1,.527,1.291c-.018,1.244,0,2.489-.012,3.734a.608.608,0,0,0,.367.643A2.484,2.484,0,0,1,47.9,50.609a2.554,2.554,0,0,1-1.721,2.374c-.141.057-.281.117-.421.175h-1.04a1.7,1.7,0,0,0-.218-.113,2.548,2.548,0,0,1-1.867-2.255,2.591,2.591,0,0,1,1.42-2.664.761.761,0,0,0,.308-.552c.029-1.123.032-2.248,0-3.371a1.171,1.171,0,0,0-.3-.715c-.9-.937-1.819-1.853-2.751-2.756a1.532,1.532,0,0,1-.5-1.2c.015-1.176.006-2.352,0-3.528,0-.181-.024-.363-.037-.548H38.164v.6q0,3.476,0,6.951a2.4,2.4,0,0,1-.071.665.791.791,0,0,1-.867.593.811.811,0,0,1-.8-.686,2.6,2.6,0,0,1-.03-.568q0-3.5,0-7c0-.182-.015-.365-.023-.547h-6.7c.672.665,1.291,1.215,1.828,1.837a1.983,1.983,0,0,1,.431,1.046,16,16,0,0,1,.013,2.073.635.635,0,0,0,.391.679,2.569,2.569,0,0,1,.309,4.392,1.354,1.354,0,0,0-.7,1.452,2.71,2.71,0,0,1,0,.57.6.6,0,0,0,.394.678,2.633,2.633,0,0,1,.109,4.571c-.259.158-.548.267-.823.4h-1.04L30.1,52.97a2.594,2.594,0,0,1-.683-4.5,1.555,1.555,0,0,0,.752-1.638,5.291,5.291,0,0,0-.014-.62.683.683,0,0,0-.26-.424,2.654,2.654,0,0,1-.009-4.763c.116-.063.263-.205.267-.315q.035-1.062,0-2.126a.7.7,0,0,0-.237-.375c-.828-.836-1.652-1.677-2.507-2.486a1.162,1.162,0,0,0-.718-.285c-1.628-.025-3.257-.014-4.885-.012-.151,0-.3.018-.5.031,0,.946-.019,1.86.013,2.772a1.1,1.1,0,0,0,.282.667q1.314,1.366,2.68,2.68a1.724,1.724,0,0,1,.579,1.373c-.028,1.521,0,3.044-.016,4.565a.634.634,0,0,0,.394.677,2.588,2.588,0,0,1,1.292,2.947,2.809,2.809,0,0,1-2.092,2.018H23.4a1.416,1.416,0,0,0-.211-.117,2.562,2.562,0,0,1-1.856-2.27,2.589,2.589,0,0,1,1.444-2.654.7.7,0,0,0,.291-.508c.023-1.417.031-2.836,0-4.253a1.309,1.309,0,0,0-.34-.8c-.882-.928-1.8-1.827-2.713-2.721a1.44,1.44,0,0,1-.484-1.146c.024-.725.006-1.452.006-2.179V35.458H16.858c0,.734,0,1.439,0,2.143,0,1.055.009,2.11-.012,3.164a.861.861,0,0,1-.812.859.891.891,0,0,1-.919-.748,2.729,2.729,0,0,1-.029-.516c0-1.453,0-2.905,0-4.357,0-.182-.016-.363-.024-.538H12.429v.6c0,1.453-.009,2.905,0,4.357a1.538,1.538,0,0,1-.5,1.2c-.933.9-1.853,1.819-2.751,2.755a1.194,1.194,0,0,0-.3.712c-.038.776,0,1.556-.021,2.333a.757.757,0,0,0,.453.8,2.637,2.637,0,0,1,0,4.574c-.25.143-.524.243-.787.363H7.488a.945.945,0,0,0-.175-.1,2.544,2.544,0,0,1-1.956-2.35,2.585,2.585,0,0,1,1.457-2.6.707.707,0,0,0,.268-.522c.026-1,.019-2.005.01-3.008a1.442,1.442,0,0,1,.458-1.109c.941-.919,1.877-1.844,2.787-2.792a1.17,1.17,0,0,0,.3-.714c.031-1.088.014-2.178.014-3.268V35.42c-.4,0-.729.015-1.053,0A9.526,9.526,0,0,1,.718,29.269,18.7,18.7,0,0,1,0,26.582m44.282-8.8c-.536,1.409-1.022,2.769-1.574,4.1A10.244,10.244,0,0,1,41.8,23.45a.877.877,0,1,1-1.515-.884c.093-.185.2-.361.312-.538A13.258,13.258,0,0,0,29.225,1.8,12.962,12.962,0,0,0,17.254,9.443a17.046,17.046,0,0,0-.917,2.581c-.3.956-.916,1.162-1.7.524-.054-.044-.106-.089-.16-.133a3.977,3.977,0,0,0-6.122,1.459,3.931,3.931,0,0,0-.208,2.684c.258.964.093,1.257-.865,1.577-.049.017-.1.027-.15.044A7.959,7.959,0,0,0,9.973,33.651q16.64.008,33.279,0a11.029,11.029,0,0,0,1.5-.1,7.982,7.982,0,0,0,6.7-7.608,7.861,7.861,0,0,0-3.063-6.513,7.493,7.493,0,0,0-4.112-1.646M31.08,49.623a.886.886,0,0,0-.9.874.928.928,0,0,0,.863.875.9.9,0,0,0,.889-.838.863.863,0,0,0-.851-.912M23.959,51.37a.91.91,0,0,0,.885-.9.889.889,0,0,0-.874-.848.878.878,0,0,0-.881.889.9.9,0,0,0,.87.859m7.973-7.943a.849.849,0,0,0-.824-.882.873.873,0,0,0-.928.84.9.9,0,0,0,.885.891.87.87,0,0,0,.866-.85M8.858,50.481a.848.848,0,0,0-.849-.857.877.877,0,0,0-.9.877.918.918,0,0,0,.862.871.884.884,0,0,0,.882-.891m36.427-.858a.853.853,0,0,0-.889.817.873.873,0,0,0,.839.927.9.9,0,0,0,.9-.877.879.879,0,0,0-.852-.868"
                              transform="translate(0 0)"
                              style=""
                            ></path>
                            <path
                              id="Path_152"
                              data-name="Path 152"
                              d="M1.777,2.664c0,.569.013,1.138,0,1.706a.857.857,0,0,1-.85.917.852.852,0,0,1-.9-.869C-.008,3.248-.006,2.075.019.9A.882.882,0,0,1,.9,0a.892.892,0,0,1,.874.958c.014.569,0,1.138,0,1.706"
                              transform="translate(15.079 43.412)"
                              style=""
                            ></path>
                            <path
                              id="Path_153"
                              data-name="Path 153"
                              d="M0,1.305c0-.121,0-.242,0-.362A.87.87,0,0,1,.885,0a.869.869,0,0,1,.881.9,5.186,5.186,0,0,1,0,.879.866.866,0,0,1-.933.84.867.867,0,0,1-.823-.9C0,1.582,0,1.443,0,1.305Z"
                              transform="translate(36.391 46.083)"
                              style=""
                            ></path>
                            <path
                              id="Path_154"
                              data-name="Path 154"
                              d="M11.521,15.089c0,.536.011,1.037,0,1.537-.018.671-.351,1.057-.886,1.06s-.87-.378-.886-1.053c-.013-.515,0-1.03,0-1.566H7.962c0,.523.009,1.038,0,1.553-.015.676-.336,1.059-.873,1.065s-.875-.377-.9-1.047c-.019-.5-.02-1-.03-1.5,0-.013-.02-.025-.052-.064h-1.7c0,.5,0,1,0,1.492-.007.72-.313,1.113-.865,1.121s-.9-.407-.908-1.146c-.006-.48,0-.96,0-1.494-.565,0-1.08.007-1.6,0-.662-.011-1.048-.352-1.037-.9.01-.528.385-.852,1.022-.863.516-.009,1.032,0,1.579,0v-1.77c-.537,0-1.084.014-1.631,0A.889.889,0,0,1,0,10.689a.847.847,0,0,1,.878-.94c.552-.023,1.105,0,1.7,0V7.969c-.526,0-1.057.013-1.587,0a.91.91,0,0,1-.987-.738A.851.851,0,0,1,.854,6.21c.293-.023.589-.01.883-.011.274,0,.547,0,.858,0V4.426a12.6,12.6,0,0,1-1.468-.015,1.573,1.573,0,0,1-.913-.358.918.918,0,0,1-.122-.841,1.106,1.106,0,0,1,.742-.521,13.577,13.577,0,0,1,1.8-.024A10.984,10.984,0,0,1,2.662.939,1.338,1.338,0,0,1,3.22.1a.95.95,0,0,1,.842.123,1.144,1.144,0,0,1,.33.759c.05.527.015,1.062.015,1.629H6.184c0-.47-.011-.929,0-1.387A2.073,2.073,0,0,1,6.294.518a.788.788,0,0,1,.879-.5.771.771,0,0,1,.751.732c.033.6.008,1.206.008,1.858H9.766c0-.605-.02-1.2.006-1.8a.794.794,0,0,1,.758-.787.791.791,0,0,1,.882.5,2.044,2.044,0,0,1,.105.71c.015.447,0,.895,0,1.385H13.3c0-.54-.008-1.054,0-1.568C13.313.4,13.629.02,14.149,0s.9.385.921,1.034c.016.516,0,1.034,0,1.64a13.616,13.616,0,0,1,1.845.026,1.035,1.035,0,0,1,.713.552,1.041,1.041,0,0,1-.2.878,1.368,1.368,0,0,1-.842.285c-.478.044-.962.012-1.477.012V6.2c.56,0,1.124-.018,1.686,0a.863.863,0,0,1,.882,1.114.916.916,0,0,1-.96.645c-.518.012-1.037,0-1.6,0V9.74c.515,0,1.029-.006,1.543,0,.675.01,1.051.333,1.048.886s-.394.868-1.064.88c-.5.009-1,0-1.534,0v1.769c.533,0,1.048-.007,1.563,0,.663.011,1.045.351,1.034.9-.011.525-.39.85-1.024.862-.516.009-1.032,0-1.612,0,0,.593.022,1.142-.006,1.688a.87.87,0,0,1-1.04.929.82.82,0,0,1-.718-.878c-.013-.551,0-1.1,0-1.7ZM4.452,13.245h8.812V4.455H4.452Z"
                              transform="translate(17.772 13.3)"
                              style=""
                            ></path>
                            <path
                              id="Path_156"
                              data-name="Path 156"
                              d="M2.676,5.315C.534,5.47-.11,4.527.015,2.683c.026-.378,0-.762.044-1.136A1.682,1.682,0,0,1,1.686.023c.673-.03,1.349-.031,2.022,0A1.643,1.643,0,0,1,5.3,1.517a12.9,12.9,0,0,1,.024,2.118,1.738,1.738,0,0,1-1.82,1.679c-.276.009-.553,0-.83,0m.863-3.5H1.829v1.7h1.71Z"
                              transform="translate(23.939 19.494)"
                              style=""
                            ></path>
                          </g>
                        </g>
                      </g>
                    </svg>