 <svg
                      id="Group_171"
                      data-name="Group 171"
                      xmlns="http://www.w3.org/2000/svg"
                      width="77.699"
                      height="77.699"
                      viewBox="0 0 77.699 77.699"
                      fill="#8e2de2"
                    >
                      <path
                        id="Path_166"
                        data-name="Path 166"
                        d="M77.7,38.882A38.85,38.85,0,1,1,39.589.007,38.893,38.893,0,0,1,77.7,38.882M38.811,74.989A36.131,36.131,0,1,0,2.721,38.415a36.232,36.232,0,0,0,36.09,36.574"
                        transform="translate(0 0)"
                        style=""
                      ></path>
                      <g
                        id="Group_169"
                        data-name="Group 169"
                        transform="translate(15.419 17.16)"
                      >
                        <g
                          id="Group_170"
                          data-name="Group 170"
                          transform="translate(0 0)"
                        >
                          <path
                            id="Path_167"
                            data-name="Path 167"
                            d="M32.032,46.849H14.826V45.291c.5,0,.927-.026,1.35.008.347.029.47-.117.56-.427.483-1.666.987-3.325,1.483-4.987.077-.259.149-.52.24-.837h-.59q-7.2,0-14.405,0a3.067,3.067,0,0,1-2.492-.913A10.013,10.013,0,0,1,0,36.418V8.876a1.747,1.747,0,0,0,.087-.2A3.034,3.034,0,0,1,2.914,6.278c.569-.053,1.147-.009,1.764-.009,0-.857-.015-1.631.005-2.4a7.078,7.078,0,0,1,.134-1.541A3.1,3.1,0,0,1,8.074,0q15.352,0,30.7,0a4.827,4.827,0,0,1,.864.07,3.007,3.007,0,0,1,2.468,2.6c.08.77.055,1.552.07,2.328.008.4,0,.81,0,1.24.48,0,.891-.015,1.3,0a5.058,5.058,0,0,1,1.04.123,3.1,3.1,0,0,1,2.335,3.159q.01,5.1,0,10.2,0,7.96,0,15.92a3.389,3.389,0,0,1-.645,2.145A3.285,3.285,0,0,1,43.41,39.05q-7.207-.006-14.414,0h-.559a1.326,1.326,0,0,0,.02.219c.576,1.925,1.15,3.85,1.742,5.77a.463.463,0,0,0,.345.242c.481.028.964.011,1.489.011ZM4.662,31.2V7.8c-.441,0-.834,0-1.228,0A1.637,1.637,0,0,0,1.559,9.679q0,11.3,0,22.6v.478H45.3v-.479q0-11.3,0-22.6a3.457,3.457,0,0,0-.014-.457,1.391,1.391,0,0,0-1.053-1.3,14.676,14.676,0,0,0-2.068-.154V31.187H40.617v-.63q0-13.565,0-27.13a1.627,1.627,0,0,0-1.836-1.869q-15.352,0-30.7,0a2.876,2.876,0,0,0-.547.032A1.63,1.63,0,0,0,6.242,3.429q0,13.588,0,27.175v.6Zm-3.093,3.18c0,.577-.036,1.127.008,1.671.074.913.758,1.428,1.846,1.429q20.014,0,40.027,0a3.435,3.435,0,0,0,.5-.035A1.481,1.481,0,0,0,45.27,36.13c.054-.57.011-1.149.011-1.745ZM28.577,45.274a1.065,1.065,0,0,0-.018-.2c-.575-1.924-1.146-3.85-1.744-5.768a.547.547,0,0,0-.429-.252c-1.967-.017-3.934,0-5.9-.018a.439.439,0,0,0-.5.381c-.539,1.84-1.1,3.674-1.644,5.512a2.439,2.439,0,0,0-.051.34Z"
                            transform="translate(0 0)"
                            style=""
                          ></path>
                          <path
                            id="Path_173"
                            data-name="Path 173"
                            d="M9.149,19.893c.433,1.95.833,3.746,1.229,5.544.167.758-.025,1.065-.79,1.242-.92.213-1.842.413-2.764.615-.707.155-1.033-.063-1.2-.8-.4-1.768-.8-3.534-1.175-5.306a.532.532,0,0,0-.484-.488A4.809,4.809,0,0,1,.107,16.947,4.754,4.754,0,0,1,2.2,11.823,6.4,6.4,0,0,1,4,11.082a17.791,17.791,0,0,1,2.315-.525,6.951,6.951,0,0,0,2.71-1.118c2.69-1.732,5.4-3.431,8.118-5.122a.6.6,0,0,0,.316-.8A3.022,3.022,0,0,1,17.4,1.671,2.437,2.437,0,0,1,19.679,0a2.312,2.312,0,0,1,2.3,1.623c.414,1.558.747,3.139,1.1,4.713q1.638,7.308,3.267,14.619a2.474,2.474,0,0,1-1.537,3.108,2.423,2.423,0,0,1-3.072-1.492,4.443,4.443,0,0,1-.118-.441c-.209-.9-.211-.881-1.113-.991-3.358-.409-6.714-.835-10.072-1.24a11.349,11.349,0,0,0-1.283-.007m8.79-14.2a1.405,1.405,0,0,0-.177.072q-4.293,2.7-8.589,5.4c-.25.156-.212.332-.165.54.464,2.08.936,4.158,1.389,6.24a.5.5,0,0,0,.511.447c2.9.35,5.806.716,8.71,1.074.458.057.918.1,1.431.151L17.939,5.692M7.451,11.873c-1.281.312-2.522.55-3.721.923A3.265,3.265,0,0,0,1.6,16.378a3.163,3.163,0,0,0,3.052,2.812,37.353,37.353,0,0,0,4.283-.667L7.451,11.873M18.858,2.536c.013.075.035.241.071.4Q20,7.777,21.084,12.614q1.014,4.547,2.032,9.093c.16.711.579,1.032,1.135.895.5-.123.707-.578.572-1.257-.009-.045-.017-.09-.027-.134q-1.82-8.157-3.64-16.314c-.2-.877-.381-1.756-.6-2.626a.859.859,0,0,0-.98-.7.9.9,0,0,0-.716.965M8.746,25.263,7.631,20.329l-1.693.389,1.1,4.924,1.71-.379"
                            transform="translate(7.847 3.11)"
                            style=""
                          ></path>
                          <path
                            id="Path_174"
                            data-name="Path 174"
                            d="M4.377,1.518l-4.032.9L0,.9,4.031,0l.346,1.518"
                            transform="translate(33.586 12.665)"
                            style=""
                          ></path>
                          <path
                            id="Path_175"
                            data-name="Path 175"
                            d="M3.121,2.953,0,1.393.7,0,3.815,1.56,3.121,2.953"
                            transform="translate(34.797 20.387)"
                            style=""
                          ></path>
                          <path
                            id="Path_176"
                            data-name="Path 176"
                            d="M2.234,0,3.2.97.9,3.263,0,2.23,2.234,0"
                            transform="translate(31.63 4.228)"
                            style=""
                          ></path>
                          <rect
                            id="Rectangle_185"
                            data-name="Rectangle 185"
                            width="1.506"
                            height="1.518"
                            transform="translate(10.962 3.139)"
                          ></rect>
                          <rect
                            id="Rectangle_186"
                            data-name="Rectangle 186"
                            width="1.502"
                            height="1.497"
                            transform="translate(7.831 3.141)"
                          ></rect>
                          <rect
                            id="Rectangle_187"
                            data-name="Rectangle 187"
                            width="1.503"
                            height="1.512"
                            transform="translate(14.095 3.142)"
                          ></rect>
                        </g>
                      </g>
                    </svg>