 <svg
                      xmlns="http://www.w3.org/2000/svg"
                      width="77.682"
                      height="77.698"
                      viewBox="0 0 77.682 77.698"
                      fill="black"
                    >
                      <g
                        id="Group_155"
                        data-name="Group 155"
                        transform="translate(0)"
                      >
                        <g
                          id="Group_154"
                          data-name="Group 154"
                          transform="translate(0 0)"
                        >
                          <path
                            id="Path_81"
                            data-name="Path 81"
                            d="M91.074,48.262a38.841,38.841,0,1,1-38.1-38.874,38.889,38.889,0,0,1,38.1,38.874M52.195,84.369A36.131,36.131,0,1,0,16.112,47.8,36.228,36.228,0,0,0,52.195,84.369"
                            transform="translate(-13.392 -9.381)"
                            style=""
                          ></path>
                          <path
                            id="Path_83"
                            data-name="Path 83"
                            d="M143.161,178.559a4.83,4.83,0,0,0,1.682,3.858,4.576,4.576,0,0,1,.745.843c.19.244.086.447-.188.514a4.463,4.463,0,0,1-1.024.155q-5.973.016-11.947,0a4.184,4.184,0,0,1-.9-.1c-.489-.109-.607-.444-.292-.824a4.424,4.424,0,0,1,.673-.673,4.806,4.806,0,0,0,1.607-3.775H116.384a1.482,1.482,0,0,1-1.684-1.666q0-14.513,0-29.026a1.4,1.4,0,0,1,1.568-1.566h43.88a1.346,1.346,0,0,1,1.532,1.527q0,14.581,0,29.163a1.408,1.408,0,0,1-1.568,1.569H143.161Zm16.489-30.326H116.725v24.151H159.65Zm-21.436,28.956a.961.961,0,0,0,.895-.921.941.941,0,0,0-.922-.886.9.9,0,0,0-.881.911.931.931,0,0,0,.908.9"
                            transform="translate(-99.356 -125.562)"
                            style=""
                          ></path>
                          <rect
                            id="Rectangle_181"
                            data-name="Rectangle 181"
                            width="38.699"
                            height="1.139"
                            transform="translate(19.505 41.739)"
                          ></rect>
                          <rect
                            id="Rectangle_182"
                            data-name="Rectangle 182"
                            width="38.694"
                            height="1.148"
                            transform="translate(19.492 43.908)"
                          ></rect>
                          <path
                            id="Path_86"
                            data-name="Path 86"
                            d="M228.894,185.673q0-2.133,0-4.266c0-.6.112-.715.712-.717.575,0,1.15.005,1.724,0,.415-.005.61.181.609.6q-.006,4.356,0,8.713c0,.421-.181.606-.6.6-.574-.014-1.15,0-1.724,0-.625,0-.716-.088-.718-.7q0-2.11,0-4.22"
                            transform="translate(-196.254 -154.743)"
                            style=""
                          ></path>
                          <rect
                            id="Rectangle_183"
                            data-name="Rectangle 183"
                            width="19.341"
                            height="1.14"
                            transform="translate(19.49 39.572)"
                          ></rect>
                          <path
                            id="Path_87"
                            data-name="Path 87"
                            d="M195.891,200.81c0-1.028,0-2.056,0-3.085,0-.524.121-.639.644-.643.59,0,1.179-.005,1.769,0,.5.005.627.126.628.612,0,2.072,0,4.143,0,6.215,0,.42-.18.607-.6.6-.559-.014-1.119,0-1.678,0-.688,0-.764-.073-.765-.745q0-1.474,0-2.949"
                            transform="translate(-168.25 -168.652)"
                            style=""
                          ></path>
                          <path
                            id="Path_88"
                            data-name="Path 88"
                            d="M165.946,215.995c0,.6-.009,1.21,0,1.814.008.413-.155.62-.587.611-.635-.012-1.27-.01-1.9,0a.479.479,0,0,1-.555-.549q0-1.927,0-3.854c0-.373.179-.547.563-.539q.952.019,1.9,0c.4-.008.583.169.578.568-.007.65,0,1.3,0,1.95"
                            transform="translate(-140.258 -182.565)"
                            style=""
                          ></path>
                          <path
                            id="Path_89"
                            data-name="Path 89"
                            d="M290.058,206.2c.071.665-.235,1.049-.7,1.058a.759.759,0,1,1,.165-1.5.593.593,0,0,0,.417-.135q1.316-1.284,2.6-2.6a.689.689,0,0,0,.143-.464.777.777,0,0,1,.7-.892c.422-.03.722.273.792.753a.607.607,0,0,0,.228.385q1.371.886,2.769,1.731a.878.878,0,0,0,.445.042c.133,0,.3-.1.393-.054.454.232.727-.074,1.035-.3.889-.654,1.785-1.3,2.663-1.97a.748.748,0,0,0,.248-.468.762.762,0,0,1,.82-.77.736.736,0,0,1,.655.908.751.751,0,0,1-.977.556.729.729,0,0,0-.512.088q-1.5,1.064-2.964,2.174a.816.816,0,0,0-.272.5.756.756,0,0,1-1.512.023.653.653,0,0,0-.241-.411q-1.351-.876-2.731-1.706a.994.994,0,0,0-.482-.039c-.088,0-.191.083-.26.057-.5-.192-.73.192-1.007.469-.74.737-1.482,1.472-2.211,2.22a1.151,1.151,0,0,0-.2.347"
                            transform="translate(-246.919 -171.989)"
                            style=""
                          ></path>
                        </g>
                      </g>
                    </svg>