<svg width="66" height="19" viewBox="0 0 66 19" fill="none" xmlns="http://www.w3.org/2000/svg">
<path d="M4.99716 14.4H10.2532V18H0.293158V1.08H4.99716V14.4ZM20.1942 18.168C18.6102 18.168 17.1542 17.8 15.8262 17.064C14.4982 16.312 13.4422 15.28 12.6582 13.968C11.8902 12.64 11.5062 11.144 11.5062 9.48C11.5062 7.816 11.8902 6.328 12.6582 5.016C13.4422 3.688 14.4982 2.656 15.8262 1.92C17.1542 1.184 18.6102 0.816 20.1942 0.816C21.7942 0.816 23.2502 1.184 24.5622 1.92C25.8902 2.656 26.9382 3.688 27.7062 5.016C28.4742 6.328 28.8582 7.816 28.8582 9.48C28.8582 11.144 28.4742 12.64 27.7062 13.968C26.9382 15.28 25.8902 16.312 24.5622 17.064C23.2342 17.8 21.7782 18.168 20.1942 18.168ZM20.1942 13.8C21.3942 13.8 22.3382 13.408 23.0262 12.624C23.7302 11.84 24.0822 10.792 24.0822 9.48C24.0822 8.136 23.7302 7.08 23.0262 6.312C22.3382 5.528 21.3942 5.136 20.1942 5.136C18.9782 5.136 18.0262 5.528 17.3382 6.312C16.6502 7.08 16.3062 8.136 16.3062 9.48C16.3062 10.808 16.6502 11.864 17.3382 12.648C18.0262 13.416 18.9782 13.8 20.1942 13.8ZM41.7728 6.648C41.5008 6.2 41.1248 5.856 40.6448 5.616C40.1808 5.376 39.6288 5.256 38.9888 5.256C37.8048 5.256 36.8688 5.64 36.1808 6.408C35.5088 7.176 35.1728 8.208 35.1728 9.504C35.1728 10.96 35.5328 12.072 36.2528 12.84C36.9888 13.592 38.0528 13.968 39.4448 13.968C41.0928 13.968 42.2688 13.224 42.9728 11.736H38.2448V8.352H47.0288V12.912C46.6608 13.808 46.1168 14.648 45.3968 15.432C44.6928 16.216 43.7968 16.864 42.7088 17.376C41.6208 17.872 40.3808 18.12 38.9888 18.12C37.2928 18.12 35.7888 17.76 34.4768 17.04C33.1808 16.304 32.1728 15.288 31.4528 13.992C30.7488 12.68 30.3968 11.184 30.3968 9.504C30.3968 7.84 30.7488 6.36 31.4528 5.064C32.1728 3.752 33.1808 2.736 34.4768 2.016C35.7728 1.28 37.2688 0.912 38.9648 0.912C41.0928 0.912 42.8528 1.424 44.2448 2.448C45.6368 3.472 46.5008 4.872 46.8368 6.648H41.7728ZM57.2489 18.168C55.6649 18.168 54.2089 17.8 52.8809 17.064C51.5529 16.312 50.4969 15.28 49.7129 13.968C48.9449 12.64 48.5609 11.144 48.5609 9.48C48.5609 7.816 48.9449 6.328 49.7129 5.016C50.4969 3.688 51.5529 2.656 52.8809 1.92C54.2089 1.184 55.6649 0.816 57.2489 0.816C58.8489 0.816 60.3049 1.184 61.6169 1.92C62.9449 2.656 63.9929 3.688 64.7609 5.016C65.5289 6.328 65.9129 7.816 65.9129 9.48C65.9129 11.144 65.5289 12.64 64.7609 13.968C63.9929 15.28 62.9449 16.312 61.6169 17.064C60.2889 17.8 58.8329 18.168 57.2489 18.168ZM57.2489 13.8C58.4489 13.8 59.3929 13.408 60.0809 12.624C60.7849 11.84 61.1369 10.792 61.1369 9.48C61.1369 8.136 60.7849 7.08 60.0809 6.312C59.3929 5.528 58.4489 5.136 57.2489 5.136C56.0329 5.136 55.0809 5.528 54.3929 6.312C53.7049 7.08 53.3609 8.136 53.3609 9.48C53.3609 10.808 53.7049 11.864 54.3929 12.648C55.0809 13.416 56.0329 13.8 57.2489 13.8Z" fill="#29292B"/>
</svg>
