<svg width="243" height="280" viewBox="0 0 243 280" fill="none" xmlns="http://www.w3.org/2000/svg">
<g filter="url(#filter0_dddd_375_612)">
<circle cx="121.5" cy="121.5" r="87.9442" transform="rotate(-60 121.5 121.5)" stroke="#8E2DE2" stroke-width="2"/>
<circle cx="120.847" cy="121.674" r="73.4831" transform="rotate(-60 120.847 121.674)" stroke="#8E2DE2" stroke-width="1.27419"/>
<path d="M166.799 148.306C167.068 147.841 167.415 147.496 167.84 147.272C168.263 147.051 168.731 146.957 169.243 146.99C169.754 147.025 170.276 147.197 170.809 147.505C171.347 147.815 171.76 148.183 172.048 148.609C172.335 149.038 172.489 149.491 172.509 149.968C172.527 150.447 172.402 150.92 172.133 151.386C171.864 151.852 171.518 152.195 171.095 152.417C170.67 152.64 170.201 152.734 169.688 152.697C169.173 152.663 168.647 152.49 168.11 152.18C167.577 151.872 167.168 151.505 166.883 151.078C166.597 150.653 166.445 150.201 166.426 149.721C166.406 149.244 166.531 148.772 166.799 148.306ZM167.511 148.718C167.307 149.071 167.23 149.415 167.279 149.748C167.329 150.081 167.47 150.388 167.702 150.668C167.934 150.948 168.223 151.188 168.568 151.387C168.912 151.586 169.265 151.717 169.627 151.779C169.988 151.842 170.326 151.811 170.642 151.689C170.957 151.567 171.217 151.329 171.421 150.975C171.625 150.621 171.702 150.277 171.65 149.942C171.598 149.608 171.455 149.3 171.221 149.018C170.986 148.737 170.696 148.496 170.352 148.297C170.007 148.098 169.655 147.968 169.296 147.907C168.937 147.846 168.601 147.878 168.288 148.001C167.975 148.125 167.716 148.364 167.511 148.718Z" fill="#8E2DE2"/>
<path d="M163.328 159.342L160.937 156.673L161.619 156.062L165.594 160.499L164.935 161.089L164.314 160.396L164.256 160.448C164.354 160.766 164.358 161.089 164.269 161.415C164.181 161.744 163.97 162.058 163.635 162.358C163.335 162.627 163.016 162.801 162.681 162.88C162.347 162.96 162.006 162.932 161.658 162.796C161.312 162.662 160.97 162.406 160.632 162.028L158.106 159.209L158.788 158.598L161.272 161.371C161.584 161.72 161.918 161.91 162.274 161.943C162.631 161.977 162.967 161.853 163.283 161.57C163.5 161.375 163.653 161.153 163.74 160.906C163.824 160.659 163.835 160.402 163.771 160.133C163.707 159.864 163.56 159.6 163.328 159.342Z" fill="#8E2DE2"/>
<path d="M75.9977 160.966L76.5103 160.284L80.479 163.267L79.9664 163.949L75.9977 160.966Z" fill="#8E2DE2"/>
<path d="M76.245 146.076L69.0689 149.481L67.0272 145.178L67.798 144.812L69.4274 148.246L71.8522 147.096L70.3757 143.984L71.1466 143.618L72.6231 146.73L75.8327 145.207L76.245 146.076Z" fill="#8E2DE2"/>
<path d="M71.6924 133.559L65.8555 134.751L65.6786 133.884L66.5602 133.705L66.5478 133.644C66.2373 133.596 65.9637 133.452 65.7269 133.21C65.4901 132.968 65.3361 132.672 65.2647 132.322C65.2513 132.256 65.2357 132.174 65.2181 132.075C65.2004 131.975 65.189 131.9 65.1837 131.848L66.0957 131.662C66.0943 131.694 66.0971 131.766 66.1042 131.878C66.1082 131.988 66.1223 132.102 66.1466 132.221C66.2046 132.505 66.3158 132.746 66.4804 132.945C66.6419 133.142 66.8397 133.283 67.0739 133.37C67.3049 133.455 67.5522 133.47 67.8156 133.417L71.5093 132.662L71.6924 133.559Z" fill="#8E2DE2"/>
<path d="M70.6209 119.574C70.5978 120.147 70.4512 120.637 70.1813 121.043C69.9089 121.446 69.5395 121.751 69.0731 121.957C68.6043 122.161 68.0651 122.25 67.4553 122.226C66.8456 122.201 66.3127 122.068 65.8567 121.827C65.3981 121.584 65.0464 121.256 64.8016 120.845C64.5543 120.432 64.4415 119.956 64.4632 119.419C64.4757 119.109 64.5397 118.805 64.6552 118.507C64.7707 118.209 64.9498 117.94 65.1923 117.702C65.4322 117.463 65.745 117.277 66.1307 117.146C66.5164 117.014 66.987 116.959 67.5425 116.981L67.93 116.997L67.7451 121.585L66.9545 121.553L67.102 117.895C66.7661 117.881 66.4637 117.937 66.1948 118.06C65.926 118.181 65.7104 118.362 65.5481 118.601C65.3858 118.838 65.2981 119.121 65.2848 119.452C65.2701 119.816 65.3478 120.135 65.5179 120.409C65.6856 120.679 65.9099 120.891 66.1909 121.045C66.472 121.199 66.7766 121.282 67.1047 121.295L67.6317 121.317C68.0812 121.335 68.4654 121.273 68.7843 121.13C69.1007 120.985 69.3459 120.776 69.5199 120.504C69.6913 120.231 69.7844 119.91 69.7993 119.541C69.809 119.301 69.7842 119.082 69.7248 118.886C69.663 118.687 69.5664 118.513 69.4352 118.366C69.3015 118.218 69.1328 118.101 68.9292 118.015L69.2129 117.142C69.5088 117.247 69.766 117.414 69.9845 117.642C70.2004 117.871 70.3652 118.149 70.4788 118.477C70.5898 118.805 70.6371 119.171 70.6209 119.574Z" fill="#8E2DE2"/>
<path d="M72.7408 107.298C72.5811 107.85 72.3216 108.29 71.9624 108.62C71.6015 108.946 71.1699 109.153 70.6677 109.242C70.1638 109.327 69.6188 109.285 69.0327 109.116C68.4466 108.946 67.9609 108.689 67.5757 108.346C67.1888 108 66.9257 107.598 66.7863 107.14C66.6452 106.68 66.6495 106.191 66.7991 105.674C66.8854 105.376 67.0204 105.096 67.2039 104.835C67.3874 104.573 67.6254 104.355 67.918 104.181C68.2081 104.007 68.5562 103.902 68.9623 103.866C69.3683 103.83 69.8384 103.89 70.3723 104.044L70.7449 104.152L69.4673 108.563L68.7073 108.343L69.7259 104.826C69.4031 104.733 69.0963 104.714 68.8055 104.77C68.5155 104.823 68.2631 104.946 68.0482 105.14C67.8341 105.331 67.681 105.585 67.5889 105.903C67.4875 106.253 67.4866 106.581 67.5864 106.888C67.6844 107.191 67.8514 107.45 68.0875 107.667C68.3236 107.883 68.5994 108.037 68.9148 108.128L69.4214 108.275C69.8536 108.4 70.2415 108.432 70.5851 108.37C70.927 108.305 71.2151 108.161 71.4492 107.938C71.6809 107.714 71.8482 107.425 71.951 107.07C72.0179 106.839 72.0461 106.621 72.0355 106.416C72.0231 106.208 71.9708 106.016 71.8788 105.841C71.7842 105.666 71.6484 105.512 71.4713 105.38L71.9558 104.6C72.218 104.773 72.4277 104.996 72.5852 105.271C72.7401 105.545 72.8334 105.854 72.8652 106.2C72.8945 106.545 72.853 106.911 72.7408 107.298Z" fill="#8E2DE2"/>
<path d="M75.1746 92.4133L75.9136 92.84L74.176 95.8495L73.4371 95.4228L75.1746 92.4133Z" fill="#8E2DE2"/>
<path d="M107.297 66.7881L106.385 67.0927C106.244 66.8483 106.072 66.6493 105.871 66.4957C105.672 66.3412 105.455 66.2285 105.218 66.1575C104.984 66.0832 104.739 66.0502 104.486 66.0584C104.233 66.0667 103.981 66.1126 103.731 66.1962C103.274 66.3485 102.9 66.6017 102.606 66.9559C102.315 67.3092 102.136 67.7467 102.067 68.2684C102.001 68.7893 102.077 69.3759 102.295 70.0283C102.513 70.6807 102.804 71.1953 103.17 71.572C103.538 71.948 103.945 72.1898 104.39 72.2975C104.837 72.4044 105.289 72.3817 105.745 72.2294C105.995 72.1459 106.224 72.0314 106.431 71.8857C106.639 71.7401 106.815 71.5683 106.959 71.3704C107.104 71.1691 107.21 70.9471 107.276 70.7042C107.344 70.4581 107.361 70.196 107.328 69.918L108.241 69.6135C108.301 70.0214 108.29 70.4078 108.211 70.7725C108.131 71.1372 107.991 71.4713 107.793 71.7747C107.593 72.0757 107.344 72.3374 107.045 72.56C106.748 72.7817 106.41 72.956 106.03 73.0829C105.387 73.2975 104.763 73.3313 104.158 73.1844C103.553 73.0375 103.01 72.7225 102.53 72.2395C102.05 71.7565 101.677 71.1177 101.412 70.3231C101.147 69.5284 101.061 68.7938 101.155 68.1192C101.248 67.4446 101.493 66.8669 101.889 66.3859C102.284 65.9049 102.803 65.5572 103.446 65.3427C103.826 65.2158 104.201 65.1518 104.571 65.1508C104.944 65.149 105.301 65.2098 105.642 65.3331C105.982 65.4539 106.294 65.6361 106.577 65.8796C106.859 66.1207 107.099 66.4235 107.297 66.7881Z" fill="#8E2DE2"/>
<path d="M118.423 70.6343C117.887 70.6776 117.406 70.588 116.981 70.3655C116.559 70.1428 116.215 69.8112 115.952 69.3708C115.69 68.9301 115.535 68.4031 115.485 67.7898C115.435 67.1712 115.504 66.6222 115.691 66.1428C115.881 65.6632 116.166 65.2796 116.547 64.992C116.932 64.7041 117.392 64.5386 117.928 64.4953C118.464 64.452 118.943 64.5418 119.366 64.7644C119.791 64.9869 120.134 65.3198 120.396 65.763C120.66 66.206 120.817 66.7368 120.867 67.3553C120.916 67.9687 120.846 68.5139 120.656 68.991C120.469 69.4678 120.184 69.8502 119.799 70.138C119.418 70.4256 118.959 70.591 118.423 70.6343ZM118.357 69.8147C118.764 69.7819 119.091 69.6504 119.337 69.4205C119.583 69.1905 119.755 68.9003 119.854 68.5499C119.953 68.1995 119.986 67.8259 119.954 67.429C119.922 67.0321 119.829 66.6674 119.675 66.3348C119.521 66.0022 119.304 65.7409 119.024 65.5507C118.745 65.3606 118.401 65.282 117.994 65.3149C117.587 65.3478 117.26 65.4805 117.014 65.713C116.768 65.9456 116.596 66.2383 116.498 66.5913C116.399 66.9443 116.366 67.3192 116.398 67.7161C116.43 68.113 116.523 68.4764 116.676 68.8064C116.83 69.1364 117.047 69.3952 117.327 69.5827C117.606 69.7703 117.95 69.8476 118.357 69.8147Z" fill="#8E2DE2"/>
<path d="M130.039 67.3294L129.464 70.8667L128.56 70.7198L129.516 64.8397L130.389 64.9816L130.239 65.9003L130.316 65.9128C130.502 65.6366 130.751 65.4307 131.061 65.2951C131.371 65.157 131.749 65.124 132.193 65.1962C132.591 65.2609 132.926 65.3991 133.198 65.611C133.47 65.8203 133.663 66.1031 133.775 66.4593C133.888 66.8129 133.904 67.2398 133.823 67.74L133.215 71.4764L132.312 71.3295L132.909 67.6545C132.984 67.1925 132.923 66.8132 132.725 66.5164C132.527 66.2171 132.219 66.0335 131.801 65.9654C131.512 65.9186 131.244 65.9392 130.997 66.0273C130.752 66.1159 130.545 66.2695 130.376 66.4883C130.207 66.707 130.094 66.9874 130.039 67.3294Z" fill="#8E2DE2"/>
<path d="M146.498 71.1801L145.65 71.0719C145.656 70.9256 145.638 70.7732 145.596 70.6147C145.558 70.4549 145.476 70.3023 145.353 70.1569C145.229 70.0115 145.045 69.8866 144.8 69.7822C144.465 69.6393 144.152 69.5976 143.863 69.6569C143.577 69.7149 143.383 69.8616 143.283 70.0971C143.194 70.3065 143.2 70.5042 143.3 70.6904C143.401 70.8766 143.596 71.079 143.885 71.2977L144.613 71.8441C145.052 72.1718 145.34 72.5094 145.476 72.8568C145.613 73.2017 145.6 73.5657 145.436 73.9487C145.303 74.2627 145.093 74.5049 144.806 74.6752C144.523 74.8466 144.19 74.9352 143.808 74.9411C143.426 74.9471 143.022 74.8593 142.596 74.6779C142.037 74.4397 141.626 74.1213 141.363 73.7226C141.1 73.3239 141.019 72.8706 141.121 72.3628L142.005 72.5036C141.955 72.831 142.005 73.1135 142.154 73.3512C142.305 73.5899 142.553 73.7827 142.898 73.9296C143.291 74.0969 143.638 74.1464 143.939 74.0782C144.244 74.0086 144.447 73.8561 144.548 73.6206C144.629 73.4303 144.63 73.2425 144.551 73.0573C144.474 72.8697 144.311 72.6851 144.062 72.5033L143.24 71.9C142.789 71.5672 142.499 71.2258 142.37 70.8757C142.244 70.5242 142.262 70.1594 142.423 69.7812C142.555 69.4719 142.758 69.2354 143.033 69.0715C143.31 68.9086 143.629 68.8237 143.989 68.8169C144.351 68.811 144.725 68.8902 145.11 69.0543C145.653 69.2854 146.028 69.5858 146.236 69.9554C146.446 70.326 146.533 70.7343 146.498 71.1801Z" fill="#8E2DE2"/>
<path d="M156.224 79.8766L158.34 77.0613L159.071 77.6112L155.493 82.3737L154.761 81.8238L155.367 81.0177L155.317 80.9804C155.024 81.1383 154.695 81.2135 154.332 81.206C153.971 81.1963 153.61 81.0564 153.251 80.7861C152.953 80.5624 152.737 80.2985 152.604 79.9943C152.472 79.688 152.439 79.3529 152.505 78.9889C152.573 78.6228 152.76 78.2372 153.064 77.8321L155.338 74.8059L156.07 75.3558L153.833 78.3324C153.572 78.6796 153.461 79.0296 153.5 79.3823C153.541 79.7366 153.714 80.0279 154.018 80.2562C154.199 80.3929 154.419 80.4854 154.677 80.5338C154.937 80.5836 155.204 80.5606 155.476 80.4647C155.751 80.3703 156 80.1743 156.224 79.8766Z" fill="#8E2DE2"/>
<path d="M168.834 84.7929L162.681 89.8164L162.102 89.1074L168.255 84.0839L168.834 84.7929Z" fill="#8E2DE2"/>
<path d="M175.145 98.9704L174.445 99.3029L173.121 96.5137L173.822 96.1812L175.145 98.9704ZM175.497 96.3823L175.89 97.2092L170.76 99.6433C170.526 99.7542 170.367 99.8712 170.282 99.9943C170.201 100.119 170.166 100.244 170.178 100.37C170.192 100.498 170.228 100.622 170.286 100.744C170.329 100.835 170.369 100.908 170.406 100.961C170.446 101.014 170.477 101.057 170.501 101.088L169.838 101.609C169.79 101.563 169.732 101.495 169.664 101.404C169.592 101.315 169.52 101.193 169.447 101.039C169.336 100.805 169.278 100.553 169.272 100.281C169.267 100.011 169.333 99.7539 169.468 99.5092C169.605 99.2668 169.83 99.0713 170.143 98.9228L175.497 96.3823Z" fill="#8E2DE2"/>
<path d="M172.755 111.424C172.68 111.055 172.681 110.705 172.759 110.375C172.839 110.044 172.994 109.763 173.224 109.532C173.456 109.299 173.763 109.145 174.143 109.067C174.477 108.999 174.762 109.009 174.996 109.099C175.233 109.187 175.434 109.33 175.598 109.526C175.762 109.722 175.9 109.947 176.013 110.201C176.129 110.457 176.232 110.717 176.323 110.981C176.441 111.327 176.533 111.607 176.601 111.823C176.672 112.041 176.747 112.194 176.826 112.284C176.905 112.376 177.017 112.407 177.162 112.377L177.192 112.371C177.567 112.295 177.838 112.133 178.003 111.885C178.17 111.64 178.211 111.311 178.126 110.898C178.039 110.47 177.877 110.153 177.64 109.948C177.403 109.743 177.168 109.613 176.935 109.558L177.065 108.645C177.45 108.724 177.768 108.87 178.017 109.083C178.27 109.298 178.466 109.549 178.606 109.834C178.749 110.122 178.851 110.412 178.911 110.706C178.949 110.894 178.97 111.114 178.974 111.366C178.981 111.621 178.94 111.876 178.849 112.132C178.76 112.39 178.592 112.624 178.347 112.832C178.102 113.04 177.748 113.192 177.284 113.287L173.438 114.072L173.255 113.175L174.046 113.014L174.036 112.968C173.897 112.933 173.741 112.859 173.568 112.747C173.394 112.635 173.233 112.471 173.084 112.256C172.934 112.041 172.825 111.764 172.755 111.424ZM173.589 111.397C173.661 111.751 173.792 112.036 173.981 112.251C174.171 112.468 174.388 112.616 174.634 112.696C174.88 112.777 175.125 112.793 175.368 112.744L176.189 112.576C176.136 112.547 176.077 112.472 176.012 112.351C175.951 112.231 175.889 112.091 175.827 111.929C175.768 111.77 175.713 111.614 175.66 111.461C175.611 111.31 175.57 111.188 175.538 111.094C175.46 110.867 175.366 110.659 175.256 110.47C175.15 110.284 175.017 110.142 174.857 110.045C174.7 109.951 174.508 109.927 174.28 109.973C173.968 110.037 173.756 110.2 173.644 110.463C173.534 110.728 173.516 111.04 173.589 111.397Z" fill="#8E2DE2"/>
<path d="M179.861 126.288L179.086 126.256L179.21 123.172L179.985 123.203L179.861 126.288ZM181.375 124.159L181.338 125.074L175.665 124.845C175.406 124.835 175.211 124.865 175.079 124.934C174.949 125.007 174.86 125.101 174.811 125.219C174.765 125.338 174.739 125.465 174.734 125.6C174.73 125.7 174.731 125.783 174.739 125.848C174.749 125.913 174.758 125.966 174.764 126.005L173.935 126.158C173.914 126.095 173.894 126.007 173.876 125.895C173.854 125.783 173.847 125.642 173.854 125.471C173.864 125.213 173.93 124.962 174.051 124.718C174.172 124.477 174.349 124.28 174.583 124.126C174.817 123.975 175.107 123.907 175.453 123.921L181.375 124.159Z" fill="#8E2DE2"/>
<path d="M172.007 136.475L177.729 138.132L177.474 139.011L171.752 137.354L172.007 136.475ZM178.553 138.855C178.603 138.684 178.704 138.553 178.856 138.463C179.008 138.375 179.166 138.355 179.33 138.402C179.494 138.45 179.617 138.551 179.698 138.707C179.779 138.865 179.795 139.029 179.745 139.201C179.695 139.372 179.595 139.502 179.443 139.59C179.29 139.68 179.132 139.701 178.968 139.654C178.804 139.606 178.681 139.504 178.601 139.346C178.519 139.19 178.503 139.027 178.553 138.855Z" fill="#8E2DE2"/>
</g>
<rect x="140.628" y="116.069" width="9.91811" height="38.2556" transform="rotate(90 140.628 116.069)" fill="#8E2DE2"/>
<rect x="116.305" y="140.462" width="9.91811" height="38.2556" transform="rotate(-150 116.305 140.462)" fill="#8E2DE2"/>
<rect x="136.377" y="135.503" width="9.91811" height="38.2556" transform="rotate(150 136.377 135.503)" fill="#8E2DE2"/>
<defs>
<filter id="filter0_dddd_375_612" x="12.6213" y="28.9193" width="217.757" height="250.957" filterUnits="userSpaceOnUse" color-interpolation-filters="sRGB">
<feFlood flood-opacity="0" result="BackgroundImageFix"/>
<feColorMatrix in="SourceAlpha" type="matrix" values="0 0 0 0 0 0 0 0 0 0 0 0 0 0 0 0 0 0 127 0" result="hardAlpha"/>
<feOffset dy="3.01813"/>
<feGaussianBlur stdDeviation="3.31995"/>
<feColorMatrix type="matrix" values="0 0 0 0 0.0117647 0 0 0 0 0.266667 0 0 0 0 0.862745 0 0 0 0.18 0"/>
<feBlend mode="normal" in2="BackgroundImageFix" result="effect1_dropShadow_375_612"/>
<feColorMatrix in="SourceAlpha" type="matrix" values="0 0 0 0 0 0 0 0 0 0 0 0 0 0 0 0 0 0 127 0" result="hardAlpha"/>
<feOffset dy="12.0725"/>
<feGaussianBlur stdDeviation="6.03627"/>
<feColorMatrix type="matrix" values="0 0 0 0 0.0117647 0 0 0 0 0.266667 0 0 0 0 0.862745 0 0 0 0.16 0"/>
<feBlend mode="normal" in2="effect1_dropShadow_375_612" result="effect2_dropShadow_375_612"/>
<feColorMatrix in="SourceAlpha" type="matrix" values="0 0 0 0 0 0 0 0 0 0 0 0 0 0 0 0 0 0 127 0" result="hardAlpha"/>
<feOffset dy="27.7668"/>
<feGaussianBlur stdDeviation="8.45078"/>
<feColorMatrix type="matrix" values="0 0 0 0 0.0117647 0 0 0 0 0.266667 0 0 0 0 0.862745 0 0 0 0.09 0"/>
<feBlend mode="normal" in2="effect2_dropShadow_375_612" result="effect3_dropShadow_375_612"/>
<feColorMatrix in="SourceAlpha" type="matrix" values="0 0 0 0 0 0 0 0 0 0 0 0 0 0 0 0 0 0 127 0" result="hardAlpha"/>
<feOffset dy="49.4974"/>
<feGaussianBlur stdDeviation="9.95984"/>
<feColorMatrix type="matrix" values="0 0 0 0 0.0117647 0 0 0 0 0.266667 0 0 0 0 0.862745 0 0 0 0.03 0"/>
<feBlend mode="normal" in2="effect3_dropShadow_375_612" result="effect4_dropShadow_375_612"/>
<feBlend mode="normal" in="SourceGraphic" in2="effect4_dropShadow_375_612" result="shape"/>
</filter>
</defs>
</svg>
