 <svg
                      xmlns="http://www.w3.org/2000/svg"
                      width="77.699"
                      height="77.699"
                      viewBox="0 0 77.699 77.699"
                      fill="black"
                    >
                      <g
                        id="Group_9846"
                        data-name="Group 9846"
                        transform="translate(0)"
                      >
                        <path
                          id="Path_157"
                          data-name="Path 157"
                          d="M77.7,38.882A38.85,38.85,0,1,1,39.589.007,38.893,38.893,0,0,1,77.7,38.882M38.811,74.989A36.131,36.131,0,1,0,2.721,38.415a36.232,36.232,0,0,0,36.09,36.574"
                          transform="translate(0 0)"
                          style=""
                        ></path>
                        <g
                          id="Group_9848"
                          data-name="Group 9848"
                          transform="translate(2.511 3.916)"
                        >
                          <g
                            id="Group_9849"
                            data-name="Group 9849"
                            transform="translate(11.968 11.962)"
                          >
                            <path
                              id="Path_43413"
                              data-name="Path 43413"
                              d="M54,41.619a4.471,4.471,0,0,1-.593,3.8,7.018,7.018,0,0,1-1.256,1.435.887.887,0,0,1-1.271-.227c-.2-.366-.247-.691.324-1.126a3.18,3.18,0,0,0,1.269-3.217,2.963,2.963,0,0,0-2.9-2.6.721.721,0,0,1-.179-.051q-.081,8.854-.163,17.731l-.251.117.153.2-.6,1.234-.192.046.085.135-.807.628-.216.382-1.2.4-.317.106c-.057.033-.129.107-.168.092-.638-.249-1.264.1-1.907.029a20.331,20.331,0,0,0-2.08-.016H37.561c-2.454,0-4.909.032-7.363-.016a6.675,6.675,0,0,1-2.87-.181c-.495.4-.958-.054-1.438-.071-.187-.007-.366-.221-.549-.341.1-.266-.019-.384-.272-.416l-.308-.074-.1,0-.225-.225-.071-.206a2.815,2.815,0,0,1-.956-1.618,11.613,11.613,0,0,1-.065-1.551q-.007-7.1,0-14.206V41.19H21.612l-.287-.181a5.567,5.567,0,0,1-.354-1.235,1.544,1.544,0,0,0-1-1.517,1.823,1.823,0,0,0-2.137.276c-.153.124-.312.241-.469.36a.833.833,0,0,1-1.153-.079c-.609-.609-1.193-1.244-1.832-1.819a.882.882,0,0,1-.162-1.176,16.052,16.052,0,0,1,1.057-1.546l-.266-.985-.1-.206a1.472,1.472,0,0,0-.957-.885c-.431-.091-.866-.177-1.3-.224a.58.58,0,0,1-.594-.648c-.019-.684-.081-1.366-.09-2.05a4.375,4.375,0,0,1,.114-1.133.776.776,0,0,1,.437-.411,2.439,2.439,0,0,1,.926-.221,1.414,1.414,0,0,0,1.465-.92l.1-.213c0-.117.373-.93-.116-1.5-.236-.295-.426-.626-.643-.936a.877.877,0,0,1,.13-1.161c.482-.513.951-1.038,1.444-1.54a1.341,1.341,0,0,1,2.326.217c.035.05.068.1.1.152l.3.1a1.931,1.931,0,0,0,.573.063,4.712,4.712,0,0,0,.75-.271l.205-.026c.15-.1.3-.191.45-.286.05-.031.14-.049.15-.089a9.618,9.618,0,0,0,.348-1.542c.047-.6.621-1.334,1.279-1.009a1.05,1.05,0,0,1,.364,1.321c-.051.136-.106.27-.16.406l-.259.212.244.092L22.21,21.8l-.4.407-.1.1-.208.209a22.577,22.577,0,0,1-2.476.959c-.316.086-.757-.185-1.107-.361a5.159,5.159,0,0,1-.781-.592l.052-.148-.149.108c-.366.3-.738.6-1.09.911-.033.03.033.208.089.295.277.428.586.837.846,1.275.346.583-.819,2.874-.843,2.943a1.582,1.582,0,0,1-.255.407,3.951,3.951,0,0,1-1.908.645c-.523-.2-.4.168-.388.431.016.35-.008.7-.015,1.054-.04.147.087.2.215.215l.807.2c.012.024.717.123,1.022.185.335.055.3.153.385.316.372.863.768,1.717,1.1,2.6a1.031,1.031,0,0,1-.125.749c-.279.5-.622.968-.935,1.442l1.006,1.011a13.606,13.606,0,0,0,1.462-.848.887.887,0,0,1,.97-.073c.75.3,1.5.593,2.24.925a3,3,0,0,1,.6.489l-.009.156.218.66.1.21c0,.067-.008.135-.009.2-.005.728-.005.728.818.691V34.5c-.885.491-1.6.022-2.275-.331a4.658,4.658,0,0,1-2.519-3.291,4.556,4.556,0,0,1,.869-3.965,7.119,7.119,0,0,1,1.273-1.139.585.585,0,0,1,.889.179l.23.129a1.221,1.221,0,0,1-.539,1.227,3.065,3.065,0,0,0-1.147,3.251,3.373,3.373,0,0,0,2.469,2.507.51.51,0,0,0,.15.014c.183,0,.366,0,.594,0v-.573c0-5.259-.011-10.517.011-15.776a5.524,5.524,0,0,1,.4-2.554,5.2,5.2,0,0,1,.5-.688l.084-.119a3.8,3.8,0,0,1,2.759-1.333c5.8-.01,11.591-.07,17.387-.079a5.61,5.61,0,0,1,3.177.765,3.834,3.834,0,0,1,1.541,3.1,7.876,7.876,0,0,0,.137.939c.01,4.874.007,9.749.007,14.7.4,0,.8-.008,1.2,0a1.114,1.114,0,0,1,1.059,1.2,4.526,4.526,0,0,0,.3,1.323c.044.135.253.24.409.308.237.1.549.1.731.252a.744.744,0,0,0,1.086-.031c.324-.25.683-.454,1.023-.683a.985.985,0,0,1,1.387.1c.612.583,1.212,1.18,1.792,1.8a.767.767,0,0,1,.106,1.031c-.389.588-.758,1.189-1.131,1.778.123.245.528,1.135.572,1.252.17.448.56.582,1.172.688a4.559,4.559,0,0,1,.846.228c.347.14.581.2.7.733a8.67,8.67,0,0,1,.1,2.181c-.014.4.072.95-.408,1.226a1.869,1.869,0,0,1-.547.132c-.049.01-.942.246-1.331.367s-.725.994-.733,1a1.435,1.435,0,0,0,.211,1.74,7.5,7.5,0,0,1,.594,1.152l-.073.207-.021.193-.1.313c-.58.6-1.164,1.2-1.74,1.8a.865.865,0,0,1-1.2.175,5.976,5.976,0,0,1-1.032-.744.751.751,0,0,0-1.039-.142,1.864,1.864,0,0,1-.465.126h-.206a3.528,3.528,0,0,0-.466.337,1.78,1.78,0,0,0-.339.467,5.027,5.027,0,0,0-.219.62q0,.1,0,.209l-.1.8-.077.108c-.307.485-.516.526-1.247.2-.379-.17-.314-.456-.219-.8.18-.656.282-1.333.433-2a4.244,4.244,0,0,1,.222-.582l.157-.067c.123-.5.622-.316.926-.491.4-.228.9-.287,1.27-.545a1.134,1.134,0,0,1,1.4-.068c.42.269.821.566,1.217.84a6.481,6.481,0,0,1,.7-.543c.386-.23.509-.461.2-.856-.262-.333-.454-.721-.708-1.062a.988.988,0,0,1,.022-1.19c.1-.185.2-.372.305-.558l.079-.111.124-.395.18-.51A1.2,1.2,0,0,1,57.7,43.849a7.609,7.609,0,0,0,1.112-.205c.089-.021.219-.123.225-.2.034-.418.04-.838.042-1.257a.192.192,0,0,0-.125-.135c-.5-.084-1-.19-1.511-.224a.978.978,0,0,1-.884-.707c-.312-.75-.625-1.5-.912-2.26a.844.844,0,0,1-.039-.6c.32-.6.7-1.165,1.127-1.868a9.675,9.675,0,0,0-.871-.768.619.619,0,0,0-.512.044c-.534.271-1.029.625-1.577.856-.505.213-.854-.328-1.321-.42a8.83,8.83,0,0,1-1.378-.484,1.062,1.062,0,0,1-.724-.808,6.438,6.438,0,0,0-.255-.737.263.263,0,0,1-.022-.13c.172-.83.116-.9-.733-.828,0,1.532-.009,3.069.019,4.605,0,.116.259.274.424.329a4.661,4.661,0,0,0,.776.13l.372.118a4.426,4.426,0,0,1,2.951,2.946q.057.187.115.374M25.98,58.771a3.955,3.955,0,0,0,1.048.3q9.244.028,18.487.01A1.22,1.22,0,0,0,45.94,59a2.616,2.616,0,0,0,1.779-2.681q0-19.99-.006-39.981a2.49,2.49,0,0,0-2.724-2.77c-4.08.014-8.16,0-12.24,0-1.812,0-3.624-.036-5.434.015a2.239,2.239,0,0,0-2.329,2.153q-.034,20.6-.009,41.2a3.676,3.676,0,0,0,.108.627l.076.207.607.814.213.181"
                              transform="translate(-11.968 -11.962)"
                              style=""
                            ></path>
                            <path
                              id="Path_43414"
                              data-name="Path 43414"
                              d="M311.948,84.805c.008-.551.319-.9.782-.886a.947.947,0,0,1,.841.828c-.019.463-.436,1.031-.747.989-.577-.077-.929-.416-.876-.931"
                              transform="translate(-271.322 -74.174)"
                              style=""
                            ></path>
                            <path
                              id="Path_43415"
                              data-name="Path 43415"
                              d="M312.724,59.923a.956.956,0,0,1,.885.793,1.051,1.051,0,0,1-.911.931.744.744,0,0,1-.71-.734c-.017-.61.258-.98.736-.99"
                              transform="translate(-271.36 -53.429)"
                              style=""
                            ></path>
                            <path
                              id="Path_43416"
                              data-name="Path 43416"
                              d="M312.744,107.934a.955.955,0,0,1,.862.817,1.024,1.024,0,0,1-.934.908.755.755,0,0,1-.688-.808c0-.568.3-.923.761-.918"
                              transform="translate(-271.357 -94.938)"
                              style=""
                            ></path>
                            <path
                              id="Path_43417"
                              data-name="Path 43417"
                              d="M59.928,264.027c0-.576.206-.795.759-.8a.79.79,0,0,1,.865.762,1.106,1.106,0,0,1-.941.938c-.4.011-.68-.362-.682-.9"
                              transform="translate(-53.433 -229.205)"
                              style=""
                            ></path>
                            <path
                              id="Path_43418"
                              data-name="Path 43418"
                              d="M59.933,287.993c0-.53.219-.748.75-.752a.79.79,0,0,1,.872.752.951.951,0,0,1-.9.877c-.569,0-.726-.192-.723-.878"
                              transform="translate(-53.438 -249.964)"
                              style=""
                            ></path>
                            <path
                              id="Path_43419"
                              data-name="Path 43419"
                              d="M59.93,312.012c0-.551.229-.771.79-.763a.782.782,0,0,1,.832.741.952.952,0,0,1-.887.888c-.577,0-.736-.187-.735-.867"
                              transform="translate(-53.435 -270.721)"
                              style=""
                            ></path>
                            <path
                              id="Path_43420"
                              data-name="Path 43420"
                              d="M84.629,85.036l.4-.407c.163.43-.117.421-.4.407"
                              transform="translate(-74.79 -74.789)"
                              style=""
                            ></path>
                            <path
                              id="Path_43422"
                              data-name="Path 43422"
                              d="M108.69,364.46c.253.033.375.151.272.416-.331.019-.272-.218-.272-.416"
                              transform="translate(-95.589 -316.727)"
                              style=""
                            ></path>
                            <path
                              id="Path_43423"
                              data-name="Path 43423"
                              d="M88.218,73.707l-.244-.092.26-.212-.016.3"
                              transform="translate(-77.682 -65.082)"
                              style=""
                            ></path>
                            <path
                              id="Path_43424"
                              data-name="Path 43424"
                              d="M273.637,365.058l.216-.382-.216.382"
                              transform="translate(-238.203 -316.913)"
                              style=""
                            ></path>
                            <path
                              id="Path_43425"
                              data-name="Path 43425"
                              d="M285.47,347.566l-.153-.2.251-.117-.1.317"
                              transform="translate(-248.302 -301.846)"
                              style=""
                            ></path>
                            <path
                              id="Path_43427"
                              data-name="Path 43427"
                              d="M38.2,132.992l.385-.316-.385.316"
                              transform="translate(-34.651 -116.33)"
                              style=""
                            ></path>
                            <path
                              id="Path_43428"
                              data-name="Path 43428"
                              d="M38.59,153.172l-.385-.316.385.316"
                              transform="translate(-34.652 -133.777)"
                              style=""
                            ></path>
                            <path
                              id="Path_43431"
                              data-name="Path 43431"
                              d="M304.413,312.192q0-.1,0-.209l.166.129-.165.08"
                              transform="translate(-264.812 -271.356)"
                              style=""
                            ></path>
                            <path
                              id="Path_43432"
                              data-name="Path 43432"
                              d="M262.4,370.578l.317-.106-.317.106"
                              transform="translate(-228.488 -321.925)"
                              style=""
                            ></path>
                            <path
                              id="Path_43433"
                              data-name="Path 43433"
                              d="M58.707,83.335l-.3-.1.3.1"
                              transform="translate(-52.115 -73.582)"
                              style=""
                            ></path>
                            <path
                              id="Path_43434"
                              data-name="Path 43434"
                              d="M354.87,287.425l.073-.207.168.118-.241.089"
                              transform="translate(-308.436 -249.944)"
                              style=""
                            ></path>
                            <path
                              id="Path_43435"
                              data-name="Path 43435"
                              d="M33.71,167.93l.1.206-.1-.206"
                              transform="translate(-30.766 -146.81)"
                              style=""
                            ></path>
                            <path
                              id="Path_43436"
                              data-name="Path 43436"
                              d="M297.352,205.7l-.372-.118.372.118"
                              transform="translate(-258.385 -179.365)"
                              style=""
                            ></path>
                            <path
                              id="Path_43437"
                              data-name="Path 43437"
                              d="M89.35,207.894l-.1-.21.1.21"
                              transform="translate(-78.783 -181.18)"
                              style=""
                            ></path>
                            <path
                              id="Path_43438"
                              data-name="Path 43438"
                              d="M70.624,81.34l-.205.026.114-.169.091.144"
                              transform="translate(-62.504 -71.821)"
                              style=""
                            ></path>
                            <path
                              id="Path_43439"
                              data-name="Path 43439"
                              d="M81.067,226.465l.287.181-.287-.181"
                              transform="translate(-71.71 -197.418)"
                              style=""
                            ></path>
                            <path
                              id="Path_43440"
                              data-name="Path 43440"
                              d="M321.631,228.584q-.058-.187-.115-.374c.039.124.077.249.115.374"
                              transform="translate(-279.599 -198.927)"
                              style=""
                            ></path>
                            <path
                              id="Path_43441"
                              data-name="Path 43441"
                              d="M83.188,114.74l-.23-.129.12-.108.11.236"
                              transform="translate(-73.345 -100.618)"
                              style=""
                            ></path>
                            <path
                              id="Path_43442"
                              data-name="Path 43442"
                              d="M82.369,88.55l.208-.209-.208.209"
                              transform="translate(-72.836 -77.998)"
                              style=""
                            ></path>
                            <path
                              id="Path_43443"
                              data-name="Path 43443"
                              d="M353.951,290.486l.1-.312-.1.312"
                              transform="translate(-307.641 -252.5)"
                              style=""
                            ></path>
                            <path
                              id="Path_43444"
                              data-name="Path 43444"
                              d="M311.974,301.471h.206l-.084.139-.122-.139"
                              transform="translate(-271.349 -262.267)"
                              style=""
                            ></path>
                            <path
                              id="Path_43446"
                              data-name="Path 43446"
                              d="M42.06,128.359l.074-.207-.074.207"
                              transform="translate(-37.985 -112.418)"
                              style=""
                            ></path>
                            <path
                              id="Path_43447"
                              data-name="Path 43447"
                              d="M33.8,118.411l-.1.213.1-.213"
                              transform="translate(-30.756 -103.996)"
                              style=""
                            ></path>
                            <path
                              id="Path_43448"
                              data-name="Path 43448"
                              d="M103.5,360.756l.071.207-.071-.207"
                              transform="translate(-91.102 -313.524)"
                              style=""
                            ></path>
                            <path
                              id="Path_43449"
                              data-name="Path 43449"
                              d="M280.645,358.887l-.085-.135.193-.046-.107.181"
                              transform="translate(-244.189 -311.752)"
                              style=""
                            ></path>
                            <path
                              id="Path_43450"
                              data-name="Path 43450"
                              d="M49.428,88.936l.149-.108-.052.148-.1-.04"
                              transform="translate(-44.355 -78.419)"
                              style=""
                            ></path>
                            <path
                              id="Path_43453"
                              data-name="Path 43453"
                              d="M105.687,363.918l.1,0-.049.123-.053-.119"
                              transform="translate(-92.996 -316.255)"
                              style=""
                            ></path>
                            <path
                              id="Path_43454"
                              data-name="Path 43454"
                              d="M87.641,201.811l.009-.156-.009.156"
                              transform="translate(-77.394 -175.968)"
                              style=""
                            ></path>
                            <path
                              id="Path_43455"
                              data-name="Path 43455"
                              d="M303.142,319.557l.077-.108-.077.108"
                              transform="translate(-263.713 -277.811)"
                              style=""
                            ></path>
                            <path
                              id="Path_43456"
                              data-name="Path 43456"
                              d="M297.309,296.247l-.157.067.157-.067"
                              transform="translate(-258.534 -257.751)"
                              style=""
                            ></path>
                            <path
                              id="Path_43457"
                              data-name="Path 43457"
                              d="M337.706,262.4l-.079.111.079-.111"
                              transform="translate(-293.528 -228.488)"
                              style=""
                            ></path>
                            <path
                              id="Path_43458"
                              data-name="Path 43458"
                              d="M102.765,22.386l-.084.119.084-.119"
                              transform="translate(-90.397 -20.974)"
                              style=""
                            ></path>
                            <path
                              id="Path_43460"
                              data-name="Path 43460"
                              d="M113.868,356.3l.213.181-.213-.181"
                              transform="translate(-100.069 -309.675)"
                              style=""
                            ></path>
                            <path
                              id="Path_43461"
                              data-name="Path 43461"
                              d="M108.824,348.77l.076.207-.076-.207"
                              transform="translate(-95.708 -303.161)"
                              style=""
                            ></path>
                            <path
                              id="Path_43462"
                              data-name="Path 43462"
                              d="M348.973,263.357l-.08.083.08-.083"
                              transform="translate(-303.268 -229.314)"
                              style=""
                            ></path>
                            <path
                              id="Path_43463"
                              data-name="Path 43463"
                              d="M133.183,166.03c.953.877,1.836,1.72,2.755,2.521.384.335.146.7.069.988-.061.226-.428.408-.7.525a1.306,1.306,0,0,1-.554.015c-.323-.4-.578-.764-.881-1.082-.643-.672-1.292-1.34-1.974-1.97-.458-.422-.814-.847-.594-1.536l-.153-.092,3.44-3.423c.61-.04,1.039-.066,1.354.344a.88.88,0,0,1-.1,1.2c-.877.8-1.734,1.629-2.666,2.51"
                              transform="translate(-115.016 -141.644)"
                              style=""
                            ></path>
                            <path
                              id="Path_43464"
                              data-name="Path 43464"
                              d="M216.845,170c-.665-.032-.872-.239-.916-.914,0-.032,0-.065,0-.1.245-.3.471-.615.739-.891.684-.7,1.387-1.389,2.114-2.114-.137-.167-.256-.339-.4-.485-.713-.723-1.433-1.439-2.15-2.158a.832.832,0,1,1,1.183-1.15l3.165,3.169a1.047,1.047,0,0,1-.105,1.373c-1.029.986-2.019,2.012-3.037,3.009a1.9,1.9,0,0,1-.5.256l-.092,0"
                              transform="translate(-188.305 -141.567)"
                              style=""
                            ></path>
                            <path
                              id="Path_43465"
                              data-name="Path 43465"
                              d="M183.194,163.625c-.148.65-.321,1.449-.514,2.244-.332,1.371-.663,2.742-1.018,4.107-.176.678-.372.779-.917.744a.677.677,0,0,1-.68-.706,21.441,21.441,0,0,1,.417-2.2c.345-1.44.728-2.871,1.085-4.309.14-.562.4-.821.858-.815.572.008.772.21.769.936"
                              transform="translate(-157.297 -142.279)"
                              style=""
                            ></path>
                            <path
                              id="Path_43466"
                              data-name="Path 43466"
                              d="M171.224,35.878c.743,0,1.486,0,2.23,0a.833.833,0,1,1-.006,1.624q-2.28,0-4.56,0c-.6,0-.914-.287-.912-.814s.315-.805.918-.809c.777,0,1.554,0,2.331,0"
                              transform="translate(-146.849 -32.638)"
                              style=""
                            ></path>
                            <path
                              id="Path_43467"
                              data-name="Path 43467"
                              d="M222.727,221.949l.092,0-.027.073-.065-.071"
                              transform="translate(-194.187 -193.512)"
                              style=""
                            ></path>
                            <path
                              id="Path_43468"
                              data-name="Path 43468"
                              d="M215.5,214.5c0,.032,0,.065,0,.1l-.072-.067.074-.03"
                              transform="translate(-187.878 -187.073)"
                              style=""
                            ></path>
                          </g>
                        </g>
                      </g>
                    </svg>