<svg width="199" height="441" viewBox="0 0 199 441" fill="none" xmlns="http://www.w3.org/2000/svg">
<path d="M0.833333 430C0.833333 435.891 5.60896 440.667 11.5 440.667C17.391 440.667 22.1667 435.891 22.1667 430C22.1667 424.109 17.391 419.333 11.5 419.333C5.60896 419.333 0.833333 424.109 0.833333 430ZM15.3875 432C16.4921 432 17.3875 431.105 17.3875 430C17.3875 428.895 16.4921 428 15.3875 428V432ZM23.1625 428C22.0579 428 21.1625 428.895 21.1625 430C21.1625 431.105 22.0579 432 23.1625 432V428ZM30.9375 432C32.0421 432 32.9375 431.105 32.9375 430C32.9375 428.895 32.0421 428 30.9375 428V432ZM38.7125 428C37.6079 428 36.7125 428.895 36.7125 430C36.7125 431.105 37.6079 432 38.7125 432V428ZM46.4875 432C47.5921 432 48.4875 431.105 48.4875 430C48.4875 428.895 47.5921 428 46.4875 428V432ZM54.2625 428C53.1579 428 52.2625 428.895 52.2625 430C52.2625 431.105 53.1579 432 54.2625 432V428ZM62.0375 432C63.1421 432 64.0375 431.105 64.0375 430C64.0375 428.895 63.1421 428 62.0375 428V432ZM69.8125 428C68.7079 428 67.8125 428.895 67.8125 430C67.8125 431.105 68.7079 432 69.8125 432V428ZM77.5875 432C78.6921 432 79.5875 431.105 79.5875 430C79.5875 428.895 78.6921 428 77.5875 428V432ZM85.3625 428C84.2579 428 83.3625 428.895 83.3625 430C83.3625 431.105 84.2579 432 85.3625 432V428ZM93.1375 432C94.2421 432 95.1375 431.105 95.1375 430C95.1375 428.895 94.2421 428 93.1375 428V432ZM100.913 428C99.8079 428 98.9125 428.895 98.9125 430C98.9125 431.105 99.8079 432 100.913 432V428ZM108.688 432C109.792 432 110.688 431.105 110.688 430C110.688 428.895 109.792 428 108.688 428V432ZM116.463 428C115.358 428 114.463 428.895 114.463 430C114.463 431.105 115.358 432 116.463 432V428ZM124.238 432C125.342 432 126.238 431.105 126.238 430C126.238 428.895 125.342 428 124.238 428V432ZM132.013 428C130.908 428 130.013 428.895 130.013 430C130.013 431.105 130.908 432 132.013 432V428ZM139.788 432C140.892 432 141.788 431.105 141.788 430C141.788 428.895 140.892 428 139.788 428V432ZM147.562 428C146.458 428 145.562 428.895 145.562 430C145.562 431.105 146.458 432 147.562 432V428ZM155.337 432C156.442 432 157.337 431.105 157.337 430C157.337 428.895 156.442 428 155.337 428V432ZM163.112 428C162.008 428 161.112 428.895 161.112 430C161.112 431.105 162.008 432 163.112 432V428ZM171.177 431.73C172.272 431.587 173.044 430.583 172.901 429.488C172.759 428.392 171.755 427.62 170.66 427.763L171.177 431.73ZM177.718 425.876C176.697 426.299 176.213 427.469 176.636 428.49C177.059 429.51 178.229 429.994 179.25 429.571L177.718 425.876ZM186.482 425.388C187.358 424.715 187.522 423.459 186.849 422.583C186.176 421.707 184.921 421.543 184.045 422.216L186.482 425.388ZM189.216 417.045C188.543 417.921 188.707 419.176 189.583 419.849C190.459 420.522 191.715 420.358 192.388 419.482L189.216 417.045ZM196.571 412.25C196.994 411.229 196.51 410.059 195.49 409.636C194.469 409.213 193.299 409.697 192.876 410.718L196.571 412.25ZM194.763 403.66C194.62 404.755 195.392 405.759 196.488 405.901C197.583 406.044 198.587 405.272 198.73 404.177L194.763 403.66ZM199 396C199 394.895 198.105 394 197 394C195.895 394 195 394.895 195 396H199ZM195 388C195 389.105 195.895 390 197 390C198.105 390 199 389.105 199 388H195ZM199 380C199 378.895 198.105 378 197 378C195.895 378 195 378.895 195 380H199ZM195 372C195 373.105 195.895 374 197 374C198.105 374 199 373.105 199 372H195ZM199 364C199 362.895 198.105 362 197 362C195.895 362 195 362.895 195 364H199ZM195 356C195 357.105 195.895 358 197 358C198.105 358 199 357.105 199 356H195ZM199 348C199 346.895 198.105 346 197 346C195.895 346 195 346.895 195 348H199ZM195 340C195 341.105 195.895 342 197 342C198.105 342 199 341.105 199 340H195ZM199 332C199 330.895 198.105 330 197 330C195.895 330 195 330.895 195 332H199ZM195 324C195 325.105 195.895 326 197 326C198.105 326 199 325.105 199 324H195ZM199 316C199 314.895 198.105 314 197 314C195.895 314 195 314.895 195 316H199ZM195 308C195 309.105 195.895 310 197 310C198.105 310 199 309.105 199 308H195ZM199 300C199 298.895 198.105 298 197 298C195.895 298 195 298.895 195 300H199ZM195 292C195 293.105 195.895 294 197 294C198.105 294 199 293.105 199 292H195ZM199 284C199 282.895 198.105 282 197 282C195.895 282 195 282.895 195 284H199ZM195 276C195 277.105 195.895 278 197 278C198.105 278 199 277.105 199 276H195ZM199 268C199 266.895 198.105 266 197 266C195.895 266 195 266.895 195 268H199ZM195 260C195 261.105 195.895 262 197 262C198.105 262 199 261.105 199 260H195ZM199 252C199 250.895 198.105 250 197 250C195.895 250 195 250.895 195 252H199ZM195 244C195 245.105 195.895 246 197 246C198.105 246 199 245.105 199 244H195ZM199 236C199 234.895 198.105 234 197 234C195.895 234 195 234.895 195 236H199ZM195 228C195 229.105 195.895 230 197 230C198.105 230 199 229.105 199 228H195ZM199 220C199 218.895 198.105 218 197 218C195.895 218 195 218.895 195 220H199ZM195 212C195 213.105 195.895 214 197 214C198.105 214 199 213.105 199 212H195ZM199 204C199 202.895 198.105 202 197 202C195.895 202 195 202.895 195 204H199ZM195 196C195 197.105 195.895 198 197 198C198.105 198 199 197.105 199 196H195ZM199 188C199 186.895 198.105 186 197 186C195.895 186 195 186.895 195 188H199ZM195 180C195 181.105 195.895 182 197 182C198.105 182 199 181.105 199 180H195ZM199 172C199 170.895 198.105 170 197 170C195.895 170 195 170.895 195 172H199ZM195 164C195 165.105 195.895 166 197 166C198.105 166 199 165.105 199 164H195ZM199 156C199 154.895 198.105 154 197 154C195.895 154 195 154.895 195 156H199ZM195 148C195 149.105 195.895 150 197 150C198.105 150 199 149.105 199 148H195ZM199 140C199 138.895 198.105 138 197 138C195.895 138 195 138.895 195 140H199ZM195 132C195 133.105 195.895 134 197 134C198.105 134 199 133.105 199 132H195ZM199 124C199 122.895 198.105 122 197 122C195.895 122 195 122.895 195 124H199ZM195 116C195 117.105 195.895 118 197 118C198.105 118 199 117.105 199 116H195ZM199 108C199 106.895 198.105 106 197 106C195.895 106 195 106.895 195 108H199ZM195 100C195 101.105 195.895 102 197 102C198.105 102 199 101.105 199 100H195ZM199 92C199 90.8954 198.105 90 197 90C195.895 90 195 90.8954 195 92H199ZM195 84C195 85.1046 195.895 86 197 86C198.105 86 199 85.1046 199 84H195ZM199 76C199 74.8954 198.105 74 197 74C195.895 74 195 74.8954 195 76H199ZM195 68C195 69.1046 195.895 70 197 70C198.105 70 199 69.1046 199 68H195ZM199 60C199 58.8954 198.105 58 197 58C195.895 58 195 58.8954 195 60H199ZM195 52C195 53.1046 195.895 54 197 54C198.105 54 199 53.1046 199 52H195ZM199 44C199 42.8954 198.105 42 197 42C195.895 42 195 42.8954 195 44H199ZM195 36C195 37.1046 195.895 38 197 38C198.105 38 199 37.1046 199 36H195ZM198.73 27.823C198.587 26.7277 197.583 25.9557 196.488 26.0985C195.392 26.2414 194.62 27.2451 194.763 28.3404L198.73 27.823ZM192.876 21.2825C193.299 22.3028 194.469 22.7869 195.49 22.3638C196.51 21.9407 196.994 20.7706 196.571 19.7503L192.876 21.2825ZM192.388 12.5178C191.715 11.642 190.459 11.4776 189.583 12.1506C188.707 12.8237 188.543 14.0793 189.216 14.9551L192.388 12.5178ZM184.045 9.78386C184.921 10.4569 186.176 10.2925 186.849 9.41667C187.522 8.54084 187.358 7.28522 186.482 6.61218L184.045 9.78386ZM179.25 2.42897C178.229 2.00586 177.059 2.48999 176.636 3.51031C176.213 4.53063 176.697 5.70076 177.718 6.12387L179.25 2.42897ZM170.66 4.23677C171.755 4.37964 172.759 3.60755 172.901 2.51226C173.044 1.41697 172.272 0.413241 171.177 0.27037L170.66 4.23677ZM162.906 0C161.802 0 160.906 0.89543 160.906 2C160.906 3.10457 161.802 4 162.906 4V0ZM154.719 4C155.823 4 156.719 3.10457 156.719 2C156.719 0.89543 155.823 0 154.719 0V4ZM146.531 0C145.427 0 144.531 0.89543 144.531 2C144.531 3.10457 145.427 4 146.531 4V0ZM138.344 4C139.448 4 140.344 3.10457 140.344 2C140.344 0.89543 139.448 0 138.344 0V4ZM130.156 0C129.052 0 128.156 0.89543 128.156 2C128.156 3.10457 129.052 4 130.156 4V0ZM121.969 4C123.073 4 123.969 3.10457 123.969 2C123.969 0.89543 123.073 0 121.969 0V4ZM113.781 0C112.677 0 111.781 0.89543 111.781 2C111.781 3.10457 112.677 4 113.781 4V0ZM105.594 4C106.698 4 107.594 3.10457 107.594 2C107.594 0.89543 106.698 0 105.594 0V4ZM11.5 432H15.3875V428H11.5V432ZM23.1625 432H30.9375V428H23.1625V432ZM38.7125 432H46.4875V428H38.7125V432ZM54.2625 432H62.0375V428H54.2625V432ZM69.8125 432H77.5875V428H69.8125V432ZM85.3625 432H93.1375V428H85.3625V432ZM100.913 432H108.688V428H100.913V432ZM116.463 432H124.238V428H116.463V432ZM132.013 432H139.788V428H132.013V432ZM147.562 432H155.337V428H147.562V432ZM163.112 432H167V428H163.112V432ZM167 432C168.415 432 169.809 431.908 171.177 431.73L170.66 427.763C169.463 427.919 168.241 428 167 428V432ZM179.25 429.571C181.852 428.492 184.281 427.079 186.482 425.388L184.045 422.216C182.118 423.697 179.993 424.933 177.718 425.876L179.25 429.571ZM192.388 419.482C194.079 417.281 195.492 414.852 196.571 412.25L192.876 410.718C191.933 412.993 190.697 415.118 189.216 417.045L192.388 419.482ZM198.73 404.177C198.908 402.809 199 401.415 199 400H195C195 401.241 194.919 402.463 194.763 403.66L198.73 404.177ZM199 400V396H195V400H199ZM199 388V380H195V388H199ZM199 372V364H195V372H199ZM199 356V348H195V356H199ZM199 340V332H195V340H199ZM199 324V316H195V324H199ZM199 308V300H195V308H199ZM199 292V284H195V292H199ZM199 276V268H195V276H199ZM199 260V252H195V260H199ZM199 244V236H195V244H199ZM199 228V220H195V228H199ZM199 212V204H195V212H199ZM199 196V188H195V196H199ZM199 180V172H195V180H199ZM199 164V156H195V164H199ZM199 148V140H195V148H199ZM199 132V124H195V132H199ZM199 116V108H195V116H199ZM199 100V92H195V100H199ZM199 84V76H195V84H199ZM199 68V60H195V68H199ZM199 52V44H195V52H199ZM199 36V32H195V36H199ZM199 32C199 30.5853 198.908 29.191 198.73 27.823L194.763 28.3404C194.919 29.5373 195 30.7587 195 32H199ZM196.571 19.7503C195.492 17.1476 194.079 14.7192 192.388 12.5178L189.216 14.9551C190.697 16.8825 191.933 19.0072 192.876 21.2825L196.571 19.7503ZM186.482 6.61218C184.281 4.92053 181.852 3.50822 179.25 2.42897L177.718 6.12387C179.993 7.06738 182.118 8.30276 184.045 9.78386L186.482 6.61218ZM171.177 0.27037C169.809 0.0919312 168.415 0 167 0V4C168.241 4 169.463 4.08065 170.66 4.23677L171.177 0.27037ZM167 0H162.906V4H167V0ZM154.719 0H146.531V4H154.719V0ZM138.344 0H130.156V4H138.344V0ZM121.969 0H113.781V4H121.969V0ZM105.594 0H101.5V4H105.594V0Z" fill="#8E2DE2"/>
</svg>
