<svg width="375" height="240" viewBox="0 0 375 240" fill="none" xmlns="http://www.w3.org/2000/svg">
<path d="M0.333333 229C0.333333 234.891 5.10896 239.667 11 239.667C16.891 239.667 21.6667 234.891 21.6667 229C21.6667 223.109 16.891 218.333 11 218.333C5.10896 218.333 0.333333 223.109 0.333333 229ZM13 224.799C13 223.694 12.1046 222.799 11 222.799C9.89543 222.799 9 223.694 9 224.799H13ZM9 216.397C9 217.502 9.89543 218.397 11 218.397C12.1046 218.397 13 217.502 13 216.397H9ZM13 207.995C13 206.89 12.1046 205.995 11 205.995C9.89543 205.995 9 206.89 9 207.995H13ZM9 199.593C9 200.698 9.89543 201.593 11 201.593C12.1046 201.593 13 200.698 13 199.593H9ZM13 191.191C13 190.087 12.1046 189.191 11 189.191C9.89543 189.191 9 190.087 9 191.191H13ZM9 182.789C9 183.894 9.89543 184.789 11 184.789C12.1046 184.789 13 183.894 13 182.789H9ZM13.2368 174.929C13.3796 173.833 12.6076 172.83 11.5123 172.687C10.417 172.544 9.41324 173.316 9.27037 174.411L13.2368 174.929ZM11.429 166.338C11.0059 167.359 11.49 168.529 12.5103 168.952C13.5306 169.375 14.7008 168.891 15.1239 167.871L11.429 166.338ZM18.7839 161.543C19.4569 160.667 19.2925 159.412 18.4167 158.739C17.5408 158.066 16.2852 158.23 15.6122 159.106L18.7839 161.543ZM21.5178 153.2C20.642 153.873 20.4776 155.129 21.1506 156.005C21.8237 156.881 23.0793 157.045 23.9551 156.372L21.5178 153.2ZM30.2825 152.712C31.3028 152.289 31.7869 151.119 31.3638 150.098C30.9407 149.078 29.7706 148.594 28.7503 149.017L30.2825 152.712ZM36.823 146.859C35.7277 147.001 34.9557 148.005 35.0985 149.1C35.2414 150.196 36.2451 150.968 37.3404 150.825L36.823 146.859ZM44.9737 150.588C46.0783 150.588 46.9737 149.693 46.9737 148.588C46.9737 147.484 46.0783 146.588 44.9737 146.588V150.588ZM52.9211 146.588C51.8165 146.588 50.9211 147.484 50.9211 148.588C50.9211 149.693 51.8165 150.588 52.9211 150.588V146.588ZM60.8684 150.588C61.973 150.588 62.8684 149.693 62.8684 148.588C62.8684 147.484 61.973 146.588 60.8684 146.588V150.588ZM68.8158 146.588C67.7112 146.588 66.8158 147.484 66.8158 148.588C66.8158 149.693 67.7112 150.588 68.8158 150.588V146.588ZM76.7632 150.588C77.8677 150.588 78.7632 149.693 78.7632 148.588C78.7632 147.484 77.8677 146.588 76.7632 146.588V150.588ZM84.7105 146.588C83.606 146.588 82.7105 147.484 82.7105 148.588C82.7105 149.693 83.606 150.588 84.7105 150.588V146.588ZM92.6579 150.588C93.7625 150.588 94.6579 149.693 94.6579 148.588C94.6579 147.484 93.7625 146.588 92.6579 146.588V150.588ZM100.605 146.588C99.5007 146.588 98.6053 147.484 98.6053 148.588C98.6053 149.693 99.5007 150.588 100.605 150.588V146.588ZM108.553 150.588C109.657 150.588 110.553 149.693 110.553 148.588C110.553 147.484 109.657 146.588 108.553 146.588V150.588ZM116.5 146.588C115.395 146.588 114.5 147.484 114.5 148.588C114.5 149.693 115.395 150.588 116.5 150.588V146.588ZM124.447 150.588C125.552 150.588 126.447 149.693 126.447 148.588C126.447 147.484 125.552 146.588 124.447 146.588V150.588ZM132.395 146.588C131.29 146.588 130.395 147.484 130.395 148.588C130.395 149.693 131.29 150.588 132.395 150.588V146.588ZM140.342 150.588C141.447 150.588 142.342 149.693 142.342 148.588C142.342 147.484 141.447 146.588 140.342 146.588V150.588ZM148.289 146.588C147.185 146.588 146.289 147.484 146.289 148.588C146.289 149.693 147.185 150.588 148.289 150.588V146.588ZM156.237 150.588C157.341 150.588 158.237 149.693 158.237 148.588C158.237 147.484 157.341 146.588 156.237 146.588V150.588ZM164.184 146.588C163.08 146.588 162.184 147.484 162.184 148.588C162.184 149.693 163.08 150.588 164.184 150.588V146.588ZM172.132 150.588C173.236 150.588 174.132 149.693 174.132 148.588C174.132 147.484 173.236 146.588 172.132 146.588V150.588ZM180.079 146.588C178.974 146.588 178.079 147.484 178.079 148.588C178.079 149.693 178.974 150.588 180.079 150.588V146.588ZM188.026 150.588C189.131 150.588 190.026 149.693 190.026 148.588C190.026 147.484 189.131 146.588 188.026 146.588V150.588ZM195.974 146.588C194.869 146.588 193.974 147.484 193.974 148.588C193.974 149.693 194.869 150.588 195.974 150.588V146.588ZM203.921 150.588C205.026 150.588 205.921 149.693 205.921 148.588C205.921 147.484 205.026 146.588 203.921 146.588V150.588ZM211.868 146.588C210.764 146.588 209.868 147.484 209.868 148.588C209.868 149.693 210.764 150.588 211.868 150.588V146.588ZM219.816 150.588C220.92 150.588 221.816 149.693 221.816 148.588C221.816 147.484 220.92 146.588 219.816 146.588V150.588ZM227.763 146.588C226.659 146.588 225.763 147.484 225.763 148.588C225.763 149.693 226.659 150.588 227.763 150.588V146.588ZM235.711 150.588C236.815 150.588 237.711 149.693 237.711 148.588C237.711 147.484 236.815 146.588 235.711 146.588V150.588ZM243.658 146.588C242.553 146.588 241.658 147.484 241.658 148.588C241.658 149.693 242.553 150.588 243.658 150.588V146.588ZM251.605 150.588C252.71 150.588 253.605 149.693 253.605 148.588C253.605 147.484 252.71 146.588 251.605 146.588V150.588ZM259.553 146.588C258.448 146.588 257.553 147.484 257.553 148.588C257.553 149.693 258.448 150.588 259.553 150.588V146.588ZM267.5 150.588C268.605 150.588 269.5 149.693 269.5 148.588C269.5 147.484 268.605 146.588 267.5 146.588V150.588ZM275.447 146.588C274.343 146.588 273.447 147.484 273.447 148.588C273.447 149.693 274.343 150.588 275.447 150.588V146.588ZM283.395 150.588C284.499 150.588 285.395 149.693 285.395 148.588C285.395 147.484 284.499 146.588 283.395 146.588V150.588ZM291.342 146.588C290.238 146.588 289.342 147.484 289.342 148.588C289.342 149.693 290.238 150.588 291.342 150.588V146.588ZM299.29 150.588C300.394 150.588 301.29 149.693 301.29 148.588C301.29 147.484 300.394 146.588 299.29 146.588V150.588ZM307.237 146.588C306.132 146.588 305.237 147.484 305.237 148.588C305.237 149.693 306.132 150.588 307.237 150.588V146.588ZM315.184 150.588C316.289 150.588 317.184 149.693 317.184 148.588C317.184 147.484 316.289 146.588 315.184 146.588V150.588ZM323.132 146.588C322.027 146.588 321.132 147.484 321.132 148.588C321.132 149.693 322.027 150.588 323.132 150.588V146.588ZM331.079 150.588C332.184 150.588 333.079 149.693 333.079 148.588C333.079 147.484 332.184 146.588 331.079 146.588V150.588ZM339.026 146.588C337.922 146.588 337.026 147.484 337.026 148.588C337.026 149.693 337.922 150.588 339.026 150.588V146.588ZM347.177 150.318C348.272 150.175 349.044 149.171 348.901 148.076C348.759 146.981 347.755 146.208 346.66 146.351L347.177 150.318ZM353.718 144.464C352.697 144.887 352.213 146.058 352.636 147.078C353.059 148.098 354.229 148.582 355.25 148.159L353.718 144.464ZM362.482 143.976C363.358 143.303 363.522 142.047 362.849 141.171C362.176 140.296 360.921 140.131 360.045 140.804L362.482 143.976ZM365.216 135.633C364.543 136.509 364.708 137.764 365.583 138.438C366.459 139.111 367.715 138.946 368.388 138.07L365.216 135.633ZM372.571 130.838C372.994 129.818 372.51 128.647 371.49 128.224C370.469 127.801 369.299 128.285 368.876 129.306L372.571 130.838ZM370.763 122.248C370.62 123.343 371.392 124.347 372.488 124.49C373.583 124.633 374.587 123.86 374.73 122.765L370.763 122.248ZM375 114.259C375 113.154 374.105 112.259 373 112.259C371.895 112.259 371 113.154 371 114.259H375ZM371 105.6C371 106.705 371.895 107.6 373 107.6C374.105 107.6 375 106.705 375 105.6H371ZM375 96.9411C375 95.8366 374.105 94.9411 373 94.9411C371.895 94.9411 371 95.8366 371 96.9411H375ZM371 88.2823C371 89.3869 371.895 90.2823 373 90.2823C374.105 90.2823 375 89.3869 375 88.2823H371ZM375 79.6235C375 78.5189 374.105 77.6235 373 77.6235C371.895 77.6235 371 78.5189 371 79.6235H375ZM371 70.9647C371 72.0693 371.895 72.9647 373 72.9647C374.105 72.9647 375 72.0693 375 70.9647H371ZM375 62.3059C375 61.2013 374.105 60.3059 373 60.3059C371.895 60.3059 371 61.2013 371 62.3059H375ZM371 53.647C371 54.7516 371.895 55.647 373 55.647C374.105 55.647 375 54.7516 375 53.647H371ZM375 44.9882C375 43.8837 374.105 42.9882 373 42.9882C371.895 42.9882 371 43.8837 371 44.9882H375ZM371 36.3294C371 37.434 371.895 38.3294 373 38.3294C374.105 38.3294 375 37.434 375 36.3294H371ZM374.73 27.823C374.587 26.7277 373.583 25.9557 372.488 26.0985C371.392 26.2414 370.62 27.2451 370.763 28.3404L374.73 27.823ZM368.876 21.2825C369.299 22.3028 370.469 22.7869 371.49 22.3638C372.51 21.9407 372.994 20.7706 372.571 19.7503L368.876 21.2825ZM368.388 12.5178C367.715 11.642 366.459 11.4776 365.583 12.1506C364.708 12.8237 364.543 14.0793 365.216 14.9551L368.388 12.5178ZM360.045 9.78385C360.921 10.4569 362.176 10.2925 362.849 9.41667C363.522 8.54084 363.358 7.28522 362.482 6.61218L360.045 9.78385ZM355.25 2.42897C354.229 2.00586 353.059 2.48999 352.636 3.51031C352.213 4.53063 352.697 5.70076 353.718 6.12387L355.25 2.42897ZM346.66 4.23677C347.755 4.37964 348.759 3.60755 348.902 2.51226C349.044 1.41697 348.272 0.413241 347.177 0.27037L346.66 4.23677ZM338.792 0C337.688 0 336.792 0.89543 336.792 2C336.792 3.10457 337.688 4 338.792 4V0ZM330.376 4C331.481 4 332.376 3.10457 332.376 2C332.376 0.89543 331.481 0 330.376 0V4ZM321.961 0C320.856 0 319.961 0.89543 319.961 2C319.961 3.10457 320.856 4 321.961 4V0ZM313.545 4C314.649 4 315.545 3.10457 315.545 2C315.545 0.89543 314.649 0 313.545 0V4ZM305.129 0C304.025 0 303.129 0.89543 303.129 2C303.129 3.10457 304.025 4 305.129 4V0ZM296.713 4C297.818 4 298.713 3.10457 298.713 2C298.713 0.89543 297.818 0 296.713 0V4ZM288.298 0C287.193 0 286.298 0.89543 286.298 2C286.298 3.10457 287.193 4 288.298 4V0ZM279.882 4C280.986 4 281.882 3.10457 281.882 2C281.882 0.89543 280.986 0 279.882 0V4ZM271.466 0C270.361 0 269.466 0.89543 269.466 2C269.466 3.10457 270.361 4 271.466 4V0ZM263.05 4C264.155 4 265.05 3.10457 265.05 2C265.05 0.89543 264.155 0 263.05 0V4ZM13 229V224.799H9V229H13ZM13 216.397V207.995H9V216.397H13ZM13 199.593V191.191H9V199.593H13ZM13 182.789V178.588H9V182.789H13ZM13 178.588C13 177.347 13.0806 176.125 13.2368 174.929L9.27037 174.411C9.09193 175.779 9 177.173 9 178.588H13ZM15.1239 167.871C16.0674 165.595 17.3028 163.471 18.7839 161.543L15.6122 159.106C13.9205 161.307 12.5082 163.736 11.429 166.338L15.1239 167.871ZM23.9551 156.372C25.8825 154.891 28.0072 153.656 30.2825 152.712L28.7503 149.017C26.1476 150.096 23.7192 151.509 21.5178 153.2L23.9551 156.372ZM37.3404 150.825C38.5373 150.669 39.7587 150.588 41 150.588V146.588C39.5853 146.588 38.191 146.68 36.823 146.859L37.3404 150.825ZM41 150.588H44.9737V146.588H41V150.588ZM52.9211 150.588H60.8684V146.588H52.9211V150.588ZM68.8158 150.588H76.7632V146.588H68.8158V150.588ZM84.7105 150.588H92.6579V146.588H84.7105V150.588ZM100.605 150.588H108.553V146.588H100.605V150.588ZM116.5 150.588H124.447V146.588H116.5V150.588ZM132.395 150.588H140.342V146.588H132.395V150.588ZM148.289 150.588H156.237V146.588H148.289V150.588ZM164.184 150.588H172.132V146.588H164.184V150.588ZM180.079 150.588H188.026V146.588H180.079V150.588ZM195.974 150.588H203.921V146.588H195.974V150.588ZM211.868 150.588H219.816V146.588H211.868V150.588ZM227.763 150.588H235.711V146.588H227.763V150.588ZM243.658 150.588H251.605V146.588H243.658V150.588ZM259.553 150.588H267.5V146.588H259.553V150.588ZM275.447 150.588H283.395V146.588H275.447V150.588ZM291.342 150.588H299.29V146.588H291.342V150.588ZM307.237 150.588H315.184V146.588H307.237V150.588ZM323.132 150.588H331.079V146.588H323.132V150.588ZM339.026 150.588H343V146.588H339.026V150.588ZM343 150.588C344.415 150.588 345.809 150.496 347.177 150.318L346.66 146.351C345.463 146.507 344.241 146.588 343 146.588V150.588ZM355.25 148.159C357.852 147.08 360.281 145.668 362.482 143.976L360.045 140.804C358.118 142.285 355.993 143.521 353.718 144.464L355.25 148.159ZM368.388 138.07C370.079 135.869 371.492 133.441 372.571 130.838L368.876 129.306C367.933 131.581 366.697 133.706 365.216 135.633L368.388 138.07ZM374.73 122.765C374.908 121.397 375 120.003 375 118.588H371C371 119.829 370.919 121.051 370.763 122.248L374.73 122.765ZM375 118.588V114.259H371V118.588H375ZM375 105.6V96.9411H371V105.6H375ZM375 88.2823V79.6235H371V88.2823H375ZM375 70.9647V62.3059H371V70.9647H375ZM375 53.647V44.9882H371V53.647H375ZM375 36.3294V32H371V36.3294H375ZM375 32C375 30.5853 374.908 29.191 374.73 27.823L370.763 28.3404C370.919 29.5373 371 30.7587 371 32H375ZM372.571 19.7503C371.492 17.1477 370.079 14.7192 368.388 12.5178L365.216 14.9551C366.697 16.8825 367.933 19.0072 368.876 21.2825L372.571 19.7503ZM362.482 6.61218C360.281 4.92053 357.852 3.50822 355.25 2.42897L353.718 6.12387C355.993 7.06737 358.118 8.30276 360.045 9.78385L362.482 6.61218ZM347.177 0.27037C345.809 0.0919312 344.415 0 343 0V4C344.241 4 345.463 4.08065 346.66 4.23677L347.177 0.27037ZM343 0H338.792V4H343V0ZM330.376 0H321.961V4H330.376V0ZM313.545 0H305.129V4H313.545V0ZM296.713 0H288.298V4H296.713V0ZM279.882 0H271.466V4H279.882V0ZM263.05 0H258.842V4H263.05V0Z" fill="#8E2DE2"/>
</svg>
