<svg width="221" height="393" viewBox="0 0 221 393" fill="none" xmlns="http://www.w3.org/2000/svg">
<path d="M198.833 382C198.833 387.891 203.609 392.667 209.5 392.667C215.391 392.667 220.167 387.891 220.167 382C220.167 376.109 215.391 371.333 209.5 371.333C203.609 371.333 198.833 376.109 198.833 382ZM86.5 0.5H81.9583V4.5H86.5V0.5ZM72.875 0.5H63.7917V4.5H72.875V0.5ZM54.7083 0.5H45.625V4.5H54.7083V0.5ZM36.5417 0.5H32V4.5H36.5417V0.5ZM32 0.5C30.5853 0.5 29.191 0.591931 27.823 0.77037L28.3404 4.73677C29.5373 4.58065 30.7587 4.5 32 4.5V0.5ZM19.7503 2.92896C17.1476 4.00822 14.7192 5.42053 12.5178 7.11218L14.9551 10.2839C16.8825 8.80276 19.0072 7.56737 21.2825 6.62387L19.7503 2.92896ZM6.61218 13.0178C4.92053 15.2192 3.50822 17.6476 2.42897 20.2503L6.12387 21.7825C7.06738 19.5072 8.30276 17.3825 9.78386 15.4551L6.61218 13.0178ZM0.27037 28.323C0.0919312 29.691 0 31.0853 0 32.5H4C4 31.2587 4.08065 30.0373 4.23677 28.8404L0.27037 28.323ZM0 32.5V36.4938H4V32.5H0ZM0 44.4813V52.4688H4V44.4813H0ZM0 60.4562V68.4437H4V60.4562H0ZM0 76.4312V84.4187H4V76.4312H0ZM0 92.4062V100.394H4V92.4062H0ZM0 108.381V116.369H4V108.381H0ZM0 124.356V132.344H4V124.356H0ZM0 140.331V148.319H4V140.331H0ZM0 156.306V164.294H4V156.306H0ZM0 172.281V180.269H4V172.281H0ZM0 188.256V196.244H4V188.256H0ZM0 204.231V212.219H4V204.231H0ZM0 220.206V228.194H4V220.206H0ZM0 236.181V244.169H4V236.181H0ZM0 252.156V260.144H4V252.156H0ZM0 268.131V276.119H4V268.131H0ZM0 284.106V292.094H4V284.106H0ZM0 300.081V308.069H4V300.081H0ZM0 316.056V324.044H4V316.056H0ZM0 332.031V340.019H4V332.031H0ZM0 348.006V352H4V348.006H0ZM0 352C0 353.415 0.0919312 354.809 0.27037 356.177L4.23677 355.66C4.08065 354.463 4 353.241 4 352H0ZM2.42896 364.25C3.50822 366.852 4.92053 369.281 6.61218 371.482L9.78386 369.045C8.30276 367.118 7.06737 364.993 6.12387 362.718L2.42896 364.25ZM12.5178 377.388C14.7192 379.079 17.1476 380.492 19.7503 381.571L21.2825 377.876C19.0072 376.933 16.8825 375.697 14.9551 374.216L12.5178 377.388ZM27.823 383.73C29.191 383.908 30.5853 384 32 384V380C30.7587 380 29.5373 379.919 28.3404 379.763L27.823 383.73ZM32 384H36.0341V380H32V384ZM44.1023 384H52.1705V380H44.1023V384ZM60.2386 384H68.3068V380H60.2386V384ZM76.375 384H84.4432V380H76.375V384ZM92.5114 384H100.58V380H92.5114V384ZM108.648 384H116.716V380H108.648V384ZM124.784 384H132.852V380H124.784V384ZM140.92 384H148.989V380H140.92V384ZM157.057 384H165.125V380H157.057V384ZM173.193 384H181.261V380H173.193V384ZM189.33 384H197.398V380H189.33V384ZM205.466 384H209.5V380H205.466V384Z" fill="#8E2DE2"/>
</svg>
