 <svg
                      xmlns="http://www.w3.org/2000/svg"
                      width="77.758"
                      height="77.774"
                      viewBox="0 0 77.758 77.774"
                      fill="black"
                    >
                      <g
                        id="RPA_Logo"
                        data-name="RPA Logo"
                        transform="translate(0)"
                      >
                        <path
                          id="Path_138"
                          data-name="Path 138"
                          d="M77.758,38.919A38.879,38.879,0,1,1,39.619.007,38.927,38.927,0,0,1,77.758,38.919M38.841,75.061A36.166,36.166,0,1,0,2.723,38.452,36.263,36.263,0,0,0,38.841,75.061"
                          transform="translate(0 0)"
                          
                        ></path>
                        <g
                          id="Group_157"
                          data-name="Group 157"
                          transform="translate(7.115 17.728)"
                        >
                          <g
                            id="Group_158"
                            data-name="Group 158"
                            transform="translate(0 0)"
                          >
                            <path
                              id="Path_91"
                              data-name="Path 91"
                              d="M10.57,0c1.328,0,2.656,0,3.984,0a6.577,6.577,0,0,1,.022,13.153q-4.027.014-8.053-.008A6.53,6.53,0,0,1,.064,7.464a6.31,6.31,0,0,1,2.679-6.2A6.334,6.334,0,0,1,6.713,0c1.285.012,2.571,0,3.857,0ZM6.613,7.688a.724.724,0,0,1,.09-.1,2.008,2.008,0,0,0,.91-2.345A1.954,1.954,0,0,0,5.721,3.706C4.867,3.625,4,3.653,3.145,3.635c-.234,0-.467,0-.7,0V9.448H4.117V8.013c.751-.153.787-.139,1.161.406.191.279.378.562.578.835.062.085.159.2.244.2.54.018,1.08.009,1.712.009l-1.2-1.777m1.67-3.966V9.429H9.95v-1.5c.511,0,.977.026,1.439-.005a2.121,2.121,0,0,0,2.118-2.013,1.985,1.985,0,0,0-1.871-2.165,33.363,33.363,0,0,0-3.353-.024M19.4,9.462c-.086-.215-.138-.358-.2-.5q-.919-2.089-1.84-4.178c-.511-1.163-.509-1.152-1.786-1.148a.5.5,0,0,0-.533.352c-.488,1.14-.992,2.273-1.49,3.408-.293.667-.586,1.334-.908,2.066.562,0,1.052.011,1.54-.01a.352.352,0,0,0,.258-.212c.16-.856.719-1.03,1.475-.9a1.1,1.1,0,0,0,.38,0,.946.946,0,0,1,1.268.826.459.459,0,0,0,.326.283c.477.032.957.013,1.509.013"
                              transform="translate(21.204 14.586)"
                              
                            ></path>
                            <path
                              id="Path_92"
                              data-name="Path 92"
                              d="M6.683,0H8.8c.07.43.163.842.2,1.26.023.268.156.337.38.417.516.184,1.012.426,1.526.615a.612.612,0,0,0,.468-.021c.371-.229.713-.5,1.068-.763l1.5,1.536c-.222.3-.469.659-.734,1a.419.419,0,0,0-.049.524c.249.5.429,1.04.666,1.55a.617.617,0,0,0,.354.312c.421.1.855.152,1.3.225V8.786c-.438.071-.865.153-1.3.206a.4.4,0,0,0-.368.317c-.2.541-.446,1.063-.647,1.6a.56.56,0,0,0,.033.437c.235.366.51.707.758,1.043l-1.542,1.519c-.315-.23-.669-.509-1.048-.75a.556.556,0,0,0-.432-.022c-.526.2-1.036.44-1.564.632-.209.076-.33.146-.353.392-.039.42-.124.835-.195,1.28H6.67c-.062-.411-.1-.831-.2-1.237a.684.684,0,0,0-.324-.409c-.519-.247-1.055-.463-1.6-.663a.557.557,0,0,0-.432.031c-.369.233-.714.506-1.044.745L1.55,12.384c.227-.312.5-.652.73-1.021a.62.62,0,0,0,.032-.475c-.2-.542-.418-1.075-.652-1.6a.512.512,0,0,0-.293-.271C.929,8.916.482,8.857,0,8.776c0-.655-.01-1.289.012-1.921,0-.085.158-.216.262-.239.426-.094.96-.028,1.262-.266.281-.222.3-.76.472-1.145a.938.938,0,0,1,.347-.394A7.4,7.4,0,0,0,4.89,2.3c.258-.432.722-.474,1.127-.589a.571.571,0,0,0,.49-.573C6.542.763,6.621.391,6.683,0m4.8,7.737A3.746,3.746,0,1,0,7.716,11.46a3.735,3.735,0,0,0,3.767-3.723"
                              transform="translate(37.042 22.636)"
                              
                            ></path>
                            <path
                              id="Path_93"
                              data-name="Path 93"
                              d="M15.48,8.764c-.473.077-.907.13-1.33.228a.561.561,0,0,0-.332.283c-.238.524-.458,1.058-.654,1.6a.621.621,0,0,0,.026.476c.229.368.505.707.743,1.03L12.423,13.9c-.307-.225-.651-.466-.983-.723a.441.441,0,0,0-.558-.057,11.051,11.051,0,0,1-1.518.629A.457.457,0,0,0,9,14.185c-.047.406-.12.809-.187,1.24H6.694c-.068-.411-.156-.837-.2-1.267a.427.427,0,0,0-.341-.408A15.422,15.422,0,0,1,4.594,13.1a.415.415,0,0,0-.522.047c-.331.262-.681.5-1.01.742L1.564,12.4c.244-.33.521-.668.75-1.036a.63.63,0,0,0,.037-.484c-.205-.568-.44-1.125-.681-1.679a.413.413,0,0,0-.248-.215c-.371-.08-.754-.109-1.122-.2A.445.445,0,0,1,.022,8.48a13.233,13.233,0,0,1,0-1.524c.007-.115.17-.315.262-.315a1.711,1.711,0,0,0,1.78-1.332,1.609,1.609,0,0,0-.27-2.032c-.07-.068-.124-.152-.287-.346L3.129,1.617c.252.183.593.455.961.684a.61.61,0,0,0,.468.042c.552-.2,1.1-.422,1.631-.668A.637.637,0,0,0,6.5,1.3C6.6.89,6.642.47,6.715,0,7.342,0,7.961-.012,8.578.02c.1,0,.232.209.265.342.082.326.092.67.179.995a.5.5,0,0,0,.3.316A2.545,2.545,0,0,1,10.9,2.747,9.127,9.127,0,0,0,12.8,4.58a2.036,2.036,0,0,1,.907,1.293.681.681,0,0,0,.684.632c1.087.143,1.085.159,1.085,1.236,0,.324,0,.647,0,1.024M7.724,3.954a3.75,3.75,0,1,0,3.769,3.711A3.745,3.745,0,0,0,7.724,3.954"
                              transform="translate(10.938 22.644)"
                              
                            ></path>
                            <path
                              id="Path_94"
                              data-name="Path 94"
                              d="M6.687,15.41c-.064-.421-.132-.807-.179-1.2-.033-.277-.116-.457-.437-.517A2.023,2.023,0,0,1,4.615,12.67,5.192,5.192,0,0,0,2.7,10.79a1.743,1.743,0,0,1-.905-1.285c-.08-.467-.338-.6-.762-.647C.017,8.749.015,8.735.022,7.729c0-.349-.089-.791.085-1.02.15-.2.615-.184.946-.211a.748.748,0,0,0,.761-.7,10.19,10.19,0,0,1,.544-1.271.676.676,0,0,0-.023-.515c-.212-.359-.479-.685-.773-1.091C2,2.5,2.433,2.077,2.884,1.677a.393.393,0,0,1,.355.018,7.13,7.13,0,0,1,.856.6c.19.158.318.12.521.014A7.987,7.987,0,0,1,6.037,1.7a.613.613,0,0,0,.506-.6c.043-.361.111-.72.171-1.1H8.764c.067.4.162.809.2,1.222a.44.44,0,0,0,.35.442c.54.193,1.062.436,1.6.635a.577.577,0,0,0,.441,0c.379-.239.732-.52,1.1-.793L13.891,3c-.215.289-.458.628-.716.956a.512.512,0,0,0-.038.617,14.954,14.954,0,0,1,.631,1.516c.077.218.166.32.4.336.266.017.53.13.792.121.482-.015.547.236.523.631-.026.422.014.849-.019,1.271a.447.447,0,0,1-.273.313c-.423.1-.959.029-1.26.266-.28.221-.228.821-.474,1.135-.608.778-.266,1.349.269,1.929a3.052,3.052,0,0,1,.2.271l-1.549,1.47c-.282-.207-.632-.486-1.005-.727a.56.56,0,0,0-.436-.044q-.83.305-1.637.672a.583.583,0,0,0-.295.338c-.087.355-.105.726-.185,1.084a.369.369,0,0,1-.249.241c-.619.021-1.238.011-1.89.011m1-3.99A3.749,3.749,0,1,0,3.985,7.6a3.745,3.745,0,0,0,3.7,3.824"
                              transform="translate(37.043 4.268)"
                              
                            ></path>
                            <path
                              id="Path_95"
                              data-name="Path 95"
                              d="M8.679,15.33H6.632c-.066-.429-.106-.847-.2-1.25a.682.682,0,0,0-.319-.406c-.512-.25-1.047-.45-1.567-.684-.206-.093-.366-.151-.567.04-.22.209-.51.344-.738.548-.247.22-.426.129-.606-.064-.292-.314-.571-.639-.87-.946-.151-.154-.226-.29-.042-.461A1.469,1.469,0,0,0,1.9,9.943,3.906,3.906,0,0,1,1.56,8.9C1.131,8.84.688,8.792.252,8.706a.375.375,0,0,1-.238-.265C-.008,7.837,0,7.233,0,6.625l1.482-.216c.309-.69.6-1.329.876-1.976a.447.447,0,0,0,0-.354c-.188-.307-.425-.584-.611-.891a.421.421,0,0,1-.016-.38c.382-.441.793-.856,1.181-1.266.424.3.764.56,1.131.779a.571.571,0,0,0,.448.016c.637-.265,1.263-.558,1.937-.862L6.652,0h2c.061.357.133.734.188,1.113a.567.567,0,0,0,.474.57,5.758,5.758,0,0,1,1.451.619.5.5,0,0,0,.668-.071,7.569,7.569,0,0,1,.737-.545.413.413,0,0,1,.381.01c.435.378.845.784,1.271,1.188-.3.41-.57.744-.786,1.111a.689.689,0,0,0-.009.518c.2.546.43,1.083.668,1.614a.5.5,0,0,0,.282.268,7.722,7.722,0,0,0,1.074.172c.227.021.332.095.327.333q-.013.741,0,1.483c0,.227-.072.344-.312.346a3.053,3.053,0,0,1-.329.052c-.854-.1-1.163.411-1.3,1.136a.92.92,0,0,1-.481.635,6.479,6.479,0,0,0-2.263,2.159,2.012,2.012,0,0,1-1.408.936.421.421,0,0,0-.388.4c-.062.426-.144.849-.219,1.28M7.662,3.883a3.685,3.685,0,0,0-3.78,3.744,3.767,3.767,0,1,0,7.534-.04,3.7,3.7,0,0,0-3.754-3.7"
                              transform="translate(11.022 4.296)"
                              
                            ></path>
                            <path
                              id="Path_96"
                              data-name="Path 96"
                              d="M0,2.551V1.3H.485Q8.393,1.3,16.3,1.3a.633.633,0,0,0,.665-.36,1.87,1.87,0,0,1,2.19-.856,1.947,1.947,0,0,1,1.371,1.843,1.945,1.945,0,0,1-1.408,1.857,1.874,1.874,0,0,1-2.176-.9.556.556,0,0,0-.593-.329Q8.677,2.56,1,2.551H0m19.55-.643a.955.955,0,1,0-1.91.034.974.974,0,0,0,.954.94.963.963,0,0,0,.957-.974"
                              transform="translate(43 19.223)"
                              
                            ></path>
                            <path
                              id="Path_97"
                              data-name="Path 97"
                              d="M20.445,1.255V2.45c-.148.008-.285.022-.421.022q-7.989,0-15.977-.014a.6.6,0,0,0-.611.361,1.712,1.712,0,0,1-1.668.911A1.865,1.865,0,0,1,1.779.006a1.721,1.721,0,0,1,1.687.96.522.522,0,0,0,.559.3q7.883-.009,15.765-.01h.655M1.857,2.82a.952.952,0,0,0,.978-.953A.948.948,0,0,0,1.873.9a.9.9,0,0,0-.957.951.914.914,0,0,0,.942.97"
                              transform="translate(0 19.286)"
                              
                            ></path>
                            <path
                              id="Path_98"
                              data-name="Path 98"
                              d="M1.306,0h1.24c0,.171,0,.321,0,.472,0,3.065.01,6.129,0,9.194a.6.6,0,0,0,.349.625,1.883,1.883,0,0,1,.894,2.141,1.924,1.924,0,0,1-3.7.065A1.851,1.851,0,0,1,.9,10.331.714.714,0,0,0,1.3,9.6c-.012-3.036,0-6.073,0-9.109,0-.153,0-.305,0-.494m.632,12.882a.943.943,0,1,0-.961-.918.934.934,0,0,0,.961.918"
                              transform="translate(32.311 28.483)"
                              
                            ></path>
                            <path
                              id="Path_99"
                              data-name="Path 99"
                              d="M1.31,0H2.543c0,.171,0,.322,0,.473,0,3.066.013,6.132,0,9.2A.618.618,0,0,0,2.9,10.3a1.874,1.874,0,0,1,.876,2.147,1.922,1.922,0,0,1-3.712-.015,1.868,1.868,0,0,1,.892-2.14.6.6,0,0,0,.347-.629c-.008-3.052,0-6.1,0-9.155,0-.154,0-.308,0-.5m.628,12.878a.945.945,0,0,0-.006-1.889.945.945,0,1,0,.006,1.889"
                              transform="translate(27.305 28.489)"
                              
                            ></path>
                            <path
                              id="Path_100"
                              data-name="Path 100"
                              d="M2.434,13.775H1.268c0-.207,0-.386,0-.566q.007-4.581.018-9.161A.543.543,0,0,0,.968,3.48,1.813,1.813,0,0,1,.017,1.619,1.977,1.977,0,0,1,1.489.042,1.883,1.883,0,0,1,3.322.791a1.794,1.794,0,0,1-.583,2.687.545.545,0,0,0-.325.562q.02,4.517.02,9.034c0,.223,0,.445,0,.7M.89,1.887a.963.963,0,0,0,.96.959.982.982,0,0,0,.96-.973A.933.933,0,0,0,1.858.91a.922.922,0,0,0-.968.976"
                              transform="translate(32.386 0)"
                              
                            ></path>
                            <path
                              id="Path_101"
                              data-name="Path 101"
                              d="M1.272,3.626A1.931,1.931,0,0,1,0,1.818,1.855,1.855,0,0,1,2.727.25a1.831,1.831,0,0,1,.95,1.721A1.7,1.7,0,0,1,2.7,3.47a.476.476,0,0,0-.294.511q.018,4.6.018,9.192c0,.181,0,.362,0,.573H1.272V3.626M1.852.89a.923.923,0,0,0-.972.978.977.977,0,0,0,.969.961A.959.959,0,0,0,2.8,1.9.937.937,0,0,0,1.852.89"
                              transform="translate(27.388 0.017)"
                              
                            ></path>
                            <path
                              id="Path_102"
                              data-name="Path 102"
                              d="M3.676,1.286c.932,0,1.864-.009,2.8.006A.546.546,0,0,0,7.038.981,1.879,1.879,0,0,1,9.328.109,1.917,1.917,0,0,1,10.6,2.171a1.888,1.888,0,0,1-1.742,1.68A1.812,1.812,0,0,1,7.03,2.874a.54.54,0,0,0-.562-.315c-1.921.009-3.841,0-5.762,0-.413,0-.688-.211-.705-.536-.012-.238.488-.734.752-.735.975,0,1.949,0,2.924,0ZM8.684,2.87a.931.931,0,0,0,.958-.919A.946.946,0,1,0,7.75,1.93a.927.927,0,0,0,.934.94"
                              transform="translate(50.664 24.979)"
                              
                            ></path>
                            <path
                              id="Path_103"
                              data-name="Path 103"
                              d="M3.529,1.295c.975,0,1.95-.006,2.924,0a.473.473,0,0,0,.5-.278A1.877,1.877,0,0,1,9.14.072a1.916,1.916,0,0,1-.008,3.7,1.861,1.861,0,0,1-2.183-.953.474.474,0,0,0-.5-.267c-1.907,0-3.814-.015-5.721.006-.436,0-.536-.323-.7-.572-.067-.1,0-.35.091-.477a.563.563,0,0,1,.4-.2c1-.016,2.006-.009,3.009-.009Zm5.1,1.569a.941.941,0,0,0,.944-.936.945.945,0,1,0-1.889,0,.943.943,0,0,0,.945.934"
                              transform="translate(50.733 13.47)"
                              
                            ></path>
                            <path
                              id="Path_104"
                              data-name="Path 104"
                              d="M6.958,2.488c-.974,0-1.949.008-2.923-.005a.5.5,0,0,0-.524.3,1.859,1.859,0,0,1-2.112.9A1.922,1.922,0,0,1,0,1.9,1.874,1.874,0,0,1,1.5.054,1.791,1.791,0,0,1,3.486.947a.562.562,0,0,0,.589.334c1.906-.011,3.812,0,5.718-.018.42,0,.5.318.651.555a.545.545,0,0,1-.073.473.565.565,0,0,1-.407.191c-1,.016-2,.008-3.007.008ZM2.844,1.869a.942.942,0,0,0-.971-.95A.936.936,0,0,0,.936,1.9a.957.957,0,0,0,.949.939.978.978,0,0,0,.958-.972"
                              transform="translate(2.217 25.033)"
                              
                            ></path>
                            <path
                              id="Path_105"
                              data-name="Path 105"
                              d="M6.8,2.436c-.946,0-1.891.007-2.837-.006a.473.473,0,0,0-.493.285,1.836,1.836,0,0,1-1.926.968A1.865,1.865,0,0,1,0,1.854,1.9,1.9,0,0,1,1.468.045,1.726,1.726,0,0,1,3.415.9a.647.647,0,0,0,.64.345c1.919-.017,3.839-.009,5.759-.009.382,0,.681.222.679.5a1.11,1.11,0,0,1-.726.694q-1.482,0-2.964,0M2.827,1.81a.962.962,0,0,0-.96-.954,1,1,0,0,0-.987.957,1.01,1.01,0,0,0,1.033,1,.942.942,0,0,0,.914-1"
                              transform="translate(2.241 13.547)"
                              
                            ></path>
                            <path
                              id="Path_106"
                              data-name="Path 106"
                              d="M0,2.575c.162-.406.284-.766.454-1.1a.482.482,0,0,1,.369-.166q1.7-.02,3.392,0A.469.469,0,0,0,4.7,1.019a1.919,1.919,0,0,1,3.614.892A1.894,1.894,0,0,1,6.854,3.8,1.876,1.876,0,0,1,4.7,2.843a.465.465,0,0,0-.5-.271c-1.384.007-2.769,0-4.209,0m7.335-.647a.945.945,0,1,0-.931.943.925.925,0,0,0,.931-.943"
                              transform="translate(50.73 31.035)"
                              
                            ></path>
                            <path
                              id="Path_107"
                              data-name="Path 107"
                              d="M0,1.3H2.788c.48,0,.96-.012,1.44,0a.438.438,0,0,0,.455-.279A1.874,1.874,0,0,1,6.871.08,1.9,1.9,0,0,1,8.244,2.113,1.885,1.885,0,0,1,6.555,3.8a1.791,1.791,0,0,1-1.844-.943.575.575,0,0,0-.6-.329c-1.087.014-2.174,0-3.26.011A.42.42,0,0,1,.367,2.2C.284,1.916.147,1.651,0,1.3M6.356.961a.925.925,0,0,0-.958.92.947.947,0,0,0,1.893.067A.932.932,0,0,0,6.356.961"
                              transform="translate(50.774 7.425)"
                              
                            ></path>
                            <path
                              id="Path_108"
                              data-name="Path 108"
                              d="M8.239,2.5c-1.445,0-2.829,0-4.213,0a.461.461,0,0,0-.489.285,1.862,1.862,0,0,1-2.069.965A1.9,1.9,0,0,1,1.356.073,1.86,1.86,0,0,1,3.522.965a.531.531,0,0,0,.591.31c1.1-.023,2.2-.019,3.306,0a.56.56,0,0,1,.392.257,9.554,9.554,0,0,1,.427.963m-5.4-.614A.94.94,0,0,0,1.864.934a.94.94,0,0,0-.938.936.932.932,0,0,0,.949.965.929.929,0,0,0,.96-.952"
                              transform="translate(4.464 31.078)"
                              
                            ></path>
                            <path
                              id="Path_109"
                              data-name="Path 109"
                              d="M8.093,1.263,7.677,2.378c-1.174,0-2.358.007-3.542,0a.751.751,0,0,0-.732.418,1.7,1.7,0,0,1-1.736.859A1.858,1.858,0,0,1,.249,2.7,1.834,1.834,0,0,1,1.7.008,1.735,1.735,0,0,1,3.464.965a.506.506,0,0,0,.552.3c1.339-.007,2.679,0,4.077,0M.906,1.814a.9.9,0,0,0,.935,1A.956.956,0,0,0,2.827,1.8.9.9,0,0,0,1.8.87Q.9.877.906,1.814"
                              transform="translate(4.486 7.496)"
                              
                            ></path>
                            <path
                              id="Path_131"
                              data-name="Path 131"
                              d="M0,1.572V.014a9.207,9.207,0,0,1,1.15.01.73.73,0,0,1,.67.79.713.713,0,0,1-.667.747A9.207,9.207,0,0,1,0,1.572"
                              transform="translate(25.352 19.602)"
                              
                            ></path>
                            <path
                              id="Path_132"
                              data-name="Path 132"
                              d="M0,1.665V0A11.959,11.959,0,0,1,1.23.08a.688.688,0,0,1,.613.78.712.712,0,0,1-.6.757A1.215,1.215,0,0,1,1,1.663c-.322.005-.644,0-1,0"
                              transform="translate(31.165 19.551)"
                              
                            ></path>
                            <path
                              id="Path_133"
                              data-name="Path 133"
                              d="M1.375,1.706H0L.68,0l.7,1.706"
                              transform="translate(36.535 19.962)"
                              
                            ></path>
                            <path
                              id="Path_134"
                              data-name="Path 134"
                              d="M2.788,5.643A2.834,2.834,0,0,1,0,2.819,2.822,2.822,0,1,1,2.788,5.643M2.87,1.122A1.7,1.7,0,1,0,4.519,2.866,1.7,1.7,0,0,0,2.87,1.122"
                              transform="translate(41.961 27.535)"
                              
                            ></path>
                            <path
                              id="Path_135"
                              data-name="Path 135"
                              d="M2.793,0A2.827,2.827,0,0,1,5.636,2.768,2.831,2.831,0,0,1,2.888,5.629,2.84,2.84,0,0,1,0,2.862,2.842,2.842,0,0,1,2.793,0M2.768,4.5a1.7,1.7,0,1,0-1.65-1.733A1.7,1.7,0,0,0,2.768,4.5"
                              transform="translate(15.866 27.547)"
                              
                            ></path>
                            <path
                              id="Path_136"
                              data-name="Path 136"
                              d="M2.861,5.631A2.832,2.832,0,0,1,0,2.836,2.843,2.843,0,0,1,2.777,0a2.815,2.815,0,0,1,.084,5.63M2.816,4.5A1.7,1.7,0,1,0,1.109,2.82,1.692,1.692,0,0,0,2.816,4.5"
                              transform="translate(41.969 9.134)"
                              
                            ></path>
                            <path
                              id="Path_137"
                              data-name="Path 137"
                              d="M2.812,0A2.845,2.845,0,0,1,5.6,2.778,2.839,2.839,0,0,1,2.864,5.615,2.808,2.808,0,1,1,2.812,0M2.8,1.08a1.659,1.659,0,0,0-1.72,1.64A1.675,1.675,0,0,0,2.759,4.5a1.7,1.7,0,0,0,1.728-1.74A1.674,1.674,0,0,0,2.8,1.08"
                              transform="translate(15.901 9.149)"
                              
                            ></path>
                          </g>
                        </g>
                      </g>
                    </svg>