<svg width="177" height="51" viewBox="0 0 177 51" fill="none" xmlns="http://www.w3.org/2000/svg">
<path fill-rule="evenodd" clip-rule="evenodd" d="M0 16.5158V32.5317L11 41.5161L22 50.5L33 41.5161L44 32.5317V16.5158V0.5H22H0V16.5158ZM31.8789 16.5864C33.6413 15.7009 35.1869 14.9766 35.3142 14.9766C35.4411 14.9766 34.8143 16.2202 33.9217 17.7403C32.7079 19.8058 32.2979 21.0447 32.2979 22.6437V24.7834H22H11.7021L11.6914 22.5652C11.6834 20.864 11.3085 19.7502 10.0835 17.787C9.20536 16.379 8.56221 15.1518 8.65489 15.0593C8.74711 14.9668 10.2052 15.6627 11.8945 16.605L14.9661 18.3189L18.2446 15.3638C20.0476 13.7382 21.5249 12.2331 21.5272 12.0192C21.53 11.8049 23.1393 13.1073 25.1034 14.9131L28.6749 18.1961L31.8789 16.5864ZM32.2979 28.0523V29.9203H22H11.7021V28.0523V26.1844H22H32.2979V28.0523Z" fill="#3362BA"/>
<path d="M60.56 10.14H56.08V7.5H68.28V10.14H63.8V21.5H60.56V10.14ZM76.608 21.74C75.1546 21.74 73.8413 21.4267 72.668 20.8C71.508 20.1733 70.5946 19.3133 69.928 18.22C69.2746 17.1133 68.948 15.8733 68.948 14.5C68.948 13.1267 69.2746 11.8933 69.928 10.8C70.5946 9.69333 71.508 8.82667 72.668 8.2C73.8413 7.57333 75.1546 7.26 76.608 7.26C78.0613 7.26 79.368 7.57333 80.528 8.2C81.688 8.82667 82.6013 9.69333 83.268 10.8C83.9346 11.8933 84.268 13.1267 84.268 14.5C84.268 15.8733 83.9346 17.1133 83.268 18.22C82.6013 19.3133 81.688 20.1733 80.528 20.8C79.368 21.4267 78.0613 21.74 76.608 21.74ZM76.608 18.98C77.4346 18.98 78.1813 18.7933 78.848 18.42C79.5146 18.0333 80.0346 17.5 80.408 16.82C80.7946 16.14 80.988 15.3667 80.988 14.5C80.988 13.6333 80.7946 12.86 80.408 12.18C80.0346 11.5 79.5146 10.9733 78.848 10.6C78.1813 10.2133 77.4346 10.02 76.608 10.02C75.7813 10.02 75.0346 10.2133 74.368 10.6C73.7013 10.9733 73.1746 11.5 72.788 12.18C72.4146 12.86 72.228 13.6333 72.228 14.5C72.228 15.3667 72.4146 16.14 72.788 16.82C73.1746 17.5 73.7013 18.0333 74.368 18.42C75.0346 18.7933 75.7813 18.98 76.608 18.98ZM92.763 7.5C94.003 7.5 95.0763 7.70667 95.983 8.12C96.903 8.53333 97.6096 9.12 98.103 9.88C98.5963 10.64 98.843 11.54 98.843 12.58C98.843 13.6067 98.5963 14.5067 98.103 15.28C97.6096 16.04 96.903 16.6267 95.983 17.04C95.0763 17.44 94.003 17.64 92.763 17.64H89.943V21.5H86.703V7.5H92.763ZM92.583 15C93.5563 15 94.2963 14.7933 94.803 14.38C95.3096 13.9533 95.563 13.3533 95.563 12.58C95.563 11.7933 95.3096 11.1933 94.803 10.78C94.2963 10.3533 93.5563 10.14 92.583 10.14H89.943V15H92.583ZM115.935 21.5L113.235 17.6H113.075H110.255V21.5H107.015V7.5H113.075C114.315 7.5 115.389 7.70667 116.295 8.12C117.215 8.53333 117.922 9.12 118.415 9.88C118.909 10.64 119.155 11.54 119.155 12.58C119.155 13.62 118.902 14.52 118.395 15.28C117.902 16.0267 117.195 16.6 116.275 17L119.415 21.5H115.935ZM115.875 12.58C115.875 11.7933 115.622 11.1933 115.115 10.78C114.609 10.3533 113.869 10.14 112.895 10.14H110.255V15.02H112.895C113.869 15.02 114.609 14.8067 115.115 14.38C115.622 13.9533 115.875 13.3533 115.875 12.58ZM130.943 18.5H124.443L123.203 21.5H119.882L126.123 7.5H129.323L135.583 21.5H132.183L130.943 18.5ZM129.923 16.04L127.703 10.68L125.483 16.04H129.923ZM139.232 10.14H134.752V7.5H146.952V10.14H142.472V21.5H139.232V10.14ZM159.535 18.9V21.5H148.695V7.5H159.275V10.1H151.915V13.14H158.415V15.66H151.915V18.9H159.535ZM162.113 7.5H168.473C169.993 7.5 171.333 7.79333 172.493 8.38C173.666 8.95333 174.573 9.76667 175.213 10.82C175.866 11.8733 176.193 13.1 176.193 14.5C176.193 15.9 175.866 17.1267 175.213 18.18C174.573 19.2333 173.666 20.0533 172.493 20.64C171.333 21.2133 169.993 21.5 168.473 21.5H162.113V7.5ZM168.313 18.84C169.713 18.84 170.826 18.4533 171.653 17.68C172.493 16.8933 172.913 15.8333 172.913 14.5C172.913 13.1667 172.493 12.1133 171.653 11.34C170.826 10.5533 169.713 10.16 168.313 10.16H165.353V18.84H168.313Z" fill="#29292B"/>
</svg>
