<svg width="120" height="121" viewBox="0 0 120 121" fill="none" xmlns="http://www.w3.org/2000/svg">
<path d="M92.805 66.29C87.295 66.29 82.13 63.955 77.435 60.155L78.575 54.775L78.615 54.565C79.65 48.85 82.86 39.265 92.81 39.265C96.3936 39.2676 99.8296 40.6924 102.364 43.2264C104.898 45.7604 106.322 49.1964 106.325 52.78C106.318 56.3628 104.892 59.7968 102.357 62.3292C99.8228 64.8617 96.3878 66.286 92.805 66.29ZM92.805 25.59C80.11 25.59 70.255 33.835 66.255 47.42C60.155 38.25 55.515 27.24 52.82 17.96H39.14V53.52C39.1374 56.8972 37.7949 60.1353 35.4074 62.5238C33.0198 64.9123 29.7822 66.256 26.405 66.26C23.0296 66.2534 19.7945 64.9085 17.4091 62.5203C15.0237 60.1321 13.6826 56.8954 13.68 53.52V17.96H0V53.52C0 68.09 11.85 80.035 26.405 80.035C40.97 80.035 52.82 68.09 52.82 53.52V47.57C55.465 53.105 58.73 58.715 62.69 63.675L54.325 103.04H68.31L74.375 74.49C79.69 77.885 85.8 80.035 92.805 80.035C107.805 80.035 120 67.775 120 52.785C120 37.785 107.805 25.59 92.805 25.59Z" fill="#15A800"/>
</svg>
