<svg width="149" height="83" viewBox="0 0 149 83" fill="none" xmlns="http://www.w3.org/2000/svg">
<path d="M10.888 3.1V25.5H5.704V7.26H1.224V3.1H10.888ZM24.3793 25.884C22.5233 25.884 20.8699 25.4253 19.4193 24.508C17.9686 23.5907 16.8273 22.268 15.9953 20.54C15.1846 18.7907 14.7793 16.7107 14.7793 14.3C14.7793 11.8893 15.1846 9.82 15.9953 8.092C16.8273 6.34267 17.9686 5.00933 19.4193 4.092C20.8699 3.17467 22.5233 2.716 24.3793 2.716C26.2353 2.716 27.8886 3.17467 29.3393 4.092C30.7899 5.00933 31.9206 6.34267 32.7313 8.092C33.5633 9.82 33.9793 11.8893 33.9793 14.3C33.9793 16.7107 33.5633 18.7907 32.7313 20.54C31.9206 22.268 30.7899 23.5907 29.3393 24.508C27.8886 25.4253 26.2353 25.884 24.3793 25.884ZM24.3793 21.5C25.7446 21.5 26.8113 20.9133 27.5793 19.74C28.3686 18.5667 28.7633 16.7533 28.7633 14.3C28.7633 11.8467 28.3686 10.0333 27.5793 8.86C26.8113 7.68667 25.7446 7.1 24.3793 7.1C23.0353 7.1 21.9686 7.68667 21.1793 8.86C20.4113 10.0333 20.0273 11.8467 20.0273 14.3C20.0273 16.7533 20.4113 18.5667 21.1793 19.74C21.9686 20.9133 23.0353 21.5 24.3793 21.5ZM46.098 25.884C44.242 25.884 42.5887 25.4253 41.138 24.508C39.6873 23.5907 38.546 22.268 37.714 20.54C36.9033 18.7907 36.498 16.7107 36.498 14.3C36.498 11.8893 36.9033 9.82 37.714 8.092C38.546 6.34267 39.6873 5.00933 41.138 4.092C42.5887 3.17467 44.242 2.716 46.098 2.716C47.954 2.716 49.6073 3.17467 51.058 4.092C52.5087 5.00933 53.6393 6.34267 54.45 8.092C55.282 9.82 55.698 11.8893 55.698 14.3C55.698 16.7107 55.282 18.7907 54.45 20.54C53.6393 22.268 52.5087 23.5907 51.058 24.508C49.6073 25.4253 47.954 25.884 46.098 25.884ZM46.098 21.5C47.4633 21.5 48.53 20.9133 49.298 19.74C50.0873 18.5667 50.482 16.7533 50.482 14.3C50.482 11.8467 50.0873 10.0333 49.298 8.86C48.53 7.68667 47.4633 7.1 46.098 7.1C44.754 7.1 43.6873 7.68667 42.898 8.86C42.13 10.0333 41.746 11.8467 41.746 14.3C41.746 16.7533 42.13 18.5667 42.898 19.74C43.6873 20.9133 44.754 21.5 46.098 21.5ZM63.4008 15.196C61.7581 15.196 60.4141 14.6413 59.3688 13.532C58.3448 12.4013 57.8328 10.8973 57.8328 9.02C57.8328 7.14267 58.3448 5.64933 59.3688 4.54C60.4141 3.40933 61.7581 2.844 63.4008 2.844C65.0434 2.844 66.3768 3.40933 67.4008 4.54C68.4248 5.64933 68.9368 7.14267 68.9368 9.02C68.9368 10.8973 68.4248 12.4013 67.4008 13.532C66.3768 14.6413 65.0434 15.196 63.4008 15.196ZM76.7448 3.1H80.5528L65.2568 25.5H61.4488L76.7448 3.1ZM63.4008 12.572C64.1261 12.572 64.6914 12.2733 65.0968 11.676C65.5234 11.0787 65.7368 10.1933 65.7368 9.02C65.7368 7.84667 65.5234 6.96133 65.0968 6.364C64.6914 5.76667 64.1261 5.468 63.4008 5.468C62.6968 5.468 62.1314 5.77733 61.7048 6.396C61.2781 6.99333 61.0648 7.868 61.0648 9.02C61.0648 10.172 61.2781 11.0573 61.7048 11.676C62.1314 12.2733 62.6968 12.572 63.4008 12.572ZM78.6008 25.756C77.5341 25.756 76.5741 25.5107 75.7208 25.02C74.8888 24.508 74.2381 23.7827 73.7688 22.844C73.2994 21.9053 73.0648 20.8173 73.0648 19.58C73.0648 18.3427 73.2994 17.2547 73.7688 16.316C74.2381 15.3773 74.8888 14.6627 75.7208 14.172C76.5741 13.66 77.5341 13.404 78.6008 13.404C80.2434 13.404 81.5768 13.9693 82.6008 15.1C83.6461 16.2093 84.1688 17.7027 84.1688 19.58C84.1688 21.4573 83.6461 22.9613 82.6008 24.092C81.5768 25.2013 80.2434 25.756 78.6008 25.756ZM78.6008 23.132C79.3261 23.132 79.8914 22.8333 80.2968 22.236C80.7234 21.6173 80.9368 20.732 80.9368 19.58C80.9368 18.428 80.7234 17.5533 80.2968 16.956C79.8914 16.3373 79.3261 16.028 78.6008 16.028C77.8968 16.028 77.3314 16.3267 76.9048 16.924C76.4781 17.5213 76.2648 18.4067 76.2648 19.58C76.2648 20.7533 76.4781 21.6387 76.9048 22.236C77.3314 22.8333 77.8968 23.132 78.6008 23.132Z" fill="#29292B"/>
<line x1="1" y1="38.5" x2="126" y2="38.5" stroke="#2459BB" stroke-width="6"/>
<path d="M4.9 75.66C4.06 75.66 3.28 75.4867 2.56 75.14C1.84 74.78 1.26 74.28 0.82 73.64L1.98 72.28C2.75333 73.3867 3.72667 73.94 4.9 73.94C5.68667 73.94 6.28 73.7 6.68 73.22C7.09333 72.74 7.3 72.0333 7.3 71.1V63.24H2.24V61.5H9.28V71C9.28 72.5467 8.90667 73.7133 8.16 74.5C7.42667 75.2733 6.34 75.66 4.9 75.66ZM17.6139 75.62C16.5606 75.62 15.6139 75.3867 14.7739 74.92C13.9339 74.4533 13.2739 73.8133 12.7939 73C12.3272 72.1733 12.0939 71.24 12.0939 70.2C12.0939 69.16 12.3272 68.2333 12.7939 67.42C13.2739 66.5933 13.9339 65.9533 14.7739 65.5C15.6139 65.0333 16.5606 64.8 17.6139 64.8C18.6672 64.8 19.6072 65.0333 20.4339 65.5C21.2739 65.9533 21.9272 66.5933 22.3939 67.42C22.8739 68.2333 23.1139 69.16 23.1139 70.2C23.1139 71.24 22.8739 72.1733 22.3939 73C21.9272 73.8133 21.2739 74.4533 20.4339 74.92C19.6072 75.3867 18.6672 75.62 17.6139 75.62ZM17.6139 73.94C18.2939 73.94 18.9006 73.7867 19.4339 73.48C19.9806 73.16 20.4072 72.72 20.7139 72.16C21.0206 71.5867 21.1739 70.9333 21.1739 70.2C21.1739 69.4667 21.0206 68.82 20.7139 68.26C20.4072 67.6867 19.9806 67.2467 19.4339 66.94C18.9006 66.6333 18.2939 66.48 17.6139 66.48C16.9339 66.48 16.3206 66.6333 15.7739 66.94C15.2406 67.2467 14.8139 67.6867 14.4939 68.26C14.1872 68.82 14.0339 69.4667 14.0339 70.2C14.0339 70.9333 14.1872 71.5867 14.4939 72.16C14.8139 72.72 15.2406 73.16 15.7739 73.48C16.3206 73.7867 16.9339 73.94 17.6139 73.94ZM31.3892 64.8C32.4159 64.8 33.3359 65.0267 34.1492 65.48C34.9626 65.9333 35.5959 66.5667 36.0492 67.38C36.5159 68.1933 36.7492 69.1333 36.7492 70.2C36.7492 71.2667 36.5159 72.2133 36.0492 73.04C35.5959 73.8533 34.9626 74.4867 34.1492 74.94C33.3359 75.3933 32.4159 75.62 31.3892 75.62C30.6026 75.62 29.8826 75.4667 29.2292 75.16C28.5759 74.8533 28.0359 74.4067 27.6092 73.82V75.5H25.7692V60.66H27.6892V66.5C28.1159 65.94 28.6492 65.52 29.2892 65.24C29.9292 64.9467 30.6292 64.8 31.3892 64.8ZM31.2292 73.94C31.9092 73.94 32.5159 73.7867 33.0492 73.48C33.5959 73.16 34.0226 72.72 34.3292 72.16C34.6492 71.5867 34.8092 70.9333 34.8092 70.2C34.8092 69.4667 34.6492 68.82 34.3292 68.26C34.0226 67.6867 33.5959 67.2467 33.0492 66.94C32.5159 66.6333 31.9092 66.48 31.2292 66.48C30.5626 66.48 29.9559 66.6333 29.4092 66.94C28.8626 67.2467 28.4359 67.6867 28.1292 68.26C27.8226 68.82 27.6692 69.4667 27.6692 70.2C27.6692 70.9333 27.8226 71.5867 28.1292 72.16C28.4359 72.72 28.8626 73.16 29.4092 73.48C29.9559 73.7867 30.5626 73.94 31.2292 73.94ZM49.1331 75.66C48.0798 75.66 47.0598 75.5 46.0731 75.18C45.0998 74.8467 44.3331 74.42 43.7731 73.9L44.5131 72.34C45.0465 72.82 45.7265 73.2133 46.5531 73.52C47.3931 73.8133 48.2531 73.96 49.1331 73.96C50.2931 73.96 51.1598 73.7667 51.7331 73.38C52.3065 72.98 52.5931 72.4533 52.5931 71.8C52.5931 71.32 52.4331 70.9333 52.1131 70.64C51.8065 70.3333 51.4198 70.1 50.9531 69.94C50.4998 69.78 49.8531 69.6 49.0131 69.4C47.9598 69.1467 47.1065 68.8933 46.4531 68.64C45.8131 68.3867 45.2598 68 44.7931 67.48C44.3398 66.9467 44.1131 66.2333 44.1131 65.34C44.1131 64.5933 44.3065 63.92 44.6931 63.32C45.0931 62.72 45.6931 62.24 46.4931 61.88C47.2931 61.52 48.2865 61.34 49.4731 61.34C50.2998 61.34 51.1131 61.4467 51.9131 61.66C52.7131 61.8733 53.3998 62.18 53.9731 62.58L53.3131 64.18C52.7265 63.8067 52.0998 63.5267 51.4331 63.34C50.7665 63.14 50.1131 63.04 49.4731 63.04C48.3398 63.04 47.4865 63.2467 46.9131 63.66C46.3531 64.0733 46.0731 64.6067 46.0731 65.26C46.0731 65.74 46.2331 66.1333 46.5531 66.44C46.8731 66.7333 47.2665 66.9667 47.7331 67.14C48.2131 67.3 48.8598 67.4733 49.6731 67.66C50.7265 67.9133 51.5731 68.1667 52.2131 68.42C52.8531 68.6733 53.3998 69.06 53.8531 69.58C54.3198 70.1 54.5531 70.8 54.5531 71.68C54.5531 72.4133 54.3531 73.0867 53.9531 73.7C53.5531 74.3 52.9465 74.78 52.1331 75.14C51.3198 75.4867 50.3198 75.66 49.1331 75.66ZM67.075 64.9V75.5H65.255V73.9C64.8683 74.4467 64.355 74.8733 63.715 75.18C63.0883 75.4733 62.4017 75.62 61.655 75.62C60.2417 75.62 59.1283 75.2333 58.315 74.46C57.5017 73.6733 57.095 72.52 57.095 71V64.9H59.015V70.78C59.015 71.8067 59.2617 72.5867 59.755 73.12C60.2483 73.64 60.955 73.9 61.875 73.9C62.8883 73.9 63.6883 73.5933 64.275 72.98C64.8617 72.3667 65.155 71.5 65.155 70.38V64.9H67.075ZM75.3502 75.62C74.2702 75.62 73.3035 75.3867 72.4502 74.92C71.6102 74.4533 70.9502 73.8133 70.4702 73C69.9902 72.1733 69.7502 71.24 69.7502 70.2C69.7502 69.16 69.9902 68.2333 70.4702 67.42C70.9502 66.5933 71.6102 65.9533 72.4502 65.5C73.3035 65.0333 74.2702 64.8 75.3502 64.8C76.3102 64.8 77.1635 64.9933 77.9102 65.38C78.6702 65.7667 79.2568 66.3267 79.6702 67.06L78.2102 68C77.8768 67.4933 77.4635 67.1133 76.9702 66.86C76.4768 66.6067 75.9302 66.48 75.3302 66.48C74.6368 66.48 74.0102 66.6333 73.4502 66.94C72.9035 67.2467 72.4702 67.6867 72.1502 68.26C71.8435 68.82 71.6902 69.4667 71.6902 70.2C71.6902 70.9467 71.8435 71.6067 72.1502 72.18C72.4702 72.74 72.9035 73.1733 73.4502 73.48C74.0102 73.7867 74.6368 73.94 75.3302 73.94C75.9302 73.94 76.4768 73.8133 76.9702 73.56C77.4635 73.3067 77.8768 72.9267 78.2102 72.42L79.6702 73.34C79.2568 74.0733 78.6702 74.64 77.9102 75.04C77.1635 75.4267 76.3102 75.62 75.3502 75.62ZM86.6197 75.62C85.5397 75.62 84.573 75.3867 83.7197 74.92C82.8797 74.4533 82.2197 73.8133 81.7397 73C81.2597 72.1733 81.0197 71.24 81.0197 70.2C81.0197 69.16 81.2597 68.2333 81.7397 67.42C82.2197 66.5933 82.8797 65.9533 83.7197 65.5C84.573 65.0333 85.5397 64.8 86.6197 64.8C87.5797 64.8 88.433 64.9933 89.1797 65.38C89.9397 65.7667 90.5264 66.3267 90.9397 67.06L89.4797 68C89.1464 67.4933 88.733 67.1133 88.2397 66.86C87.7464 66.6067 87.1997 66.48 86.5997 66.48C85.9064 66.48 85.2797 66.6333 84.7197 66.94C84.173 67.2467 83.7397 67.6867 83.4197 68.26C83.113 68.82 82.9597 69.4667 82.9597 70.2C82.9597 70.9467 83.113 71.6067 83.4197 72.18C83.7397 72.74 84.173 73.1733 84.7197 73.48C85.2797 73.7867 85.9064 73.94 86.5997 73.94C87.1997 73.94 87.7464 73.8133 88.2397 73.56C88.733 73.3067 89.1464 72.9267 89.4797 72.42L90.9397 73.34C90.5264 74.0733 89.9397 74.64 89.1797 75.04C88.433 75.4267 87.5797 75.62 86.6197 75.62ZM102.849 70.26C102.849 70.4067 102.836 70.6 102.809 70.84H94.2092C94.3292 71.7733 94.7359 72.5267 95.4292 73.1C96.1359 73.66 97.0092 73.94 98.0492 73.94C99.3159 73.94 100.336 73.5133 101.109 72.66L102.169 73.9C101.689 74.46 101.089 74.8867 100.369 75.18C99.6626 75.4733 98.8692 75.62 97.9892 75.62C96.8692 75.62 95.8759 75.3933 95.0092 74.94C94.1426 74.4733 93.4692 73.8267 92.9892 73C92.5226 72.1733 92.2892 71.24 92.2892 70.2C92.2892 69.1733 92.5159 68.2467 92.9692 67.42C93.4359 66.5933 94.0692 65.9533 94.8692 65.5C95.6826 65.0333 96.5959 64.8 97.6092 64.8C98.6226 64.8 99.5226 65.0333 100.309 65.5C101.109 65.9533 101.729 66.5933 102.169 67.42C102.623 68.2467 102.849 69.1933 102.849 70.26ZM97.6092 66.42C96.6892 66.42 95.9159 66.7 95.2892 67.26C94.6759 67.82 94.3159 68.5533 94.2092 69.46H101.009C100.903 68.5667 100.536 67.84 99.9092 67.28C99.2959 66.7067 98.5292 66.42 97.6092 66.42ZM108.555 75.62C107.689 75.62 106.855 75.5067 106.055 75.28C105.255 75.04 104.629 74.74 104.175 74.38L104.975 72.86C105.442 73.1933 106.009 73.46 106.675 73.66C107.342 73.86 108.015 73.96 108.695 73.96C110.375 73.96 111.215 73.48 111.215 72.52C111.215 72.2 111.102 71.9467 110.875 71.76C110.649 71.5733 110.362 71.44 110.015 71.36C109.682 71.2667 109.202 71.1667 108.575 71.06C107.722 70.9267 107.022 70.7733 106.475 70.6C105.942 70.4267 105.482 70.1333 105.095 69.72C104.709 69.3067 104.515 68.7267 104.515 67.98C104.515 67.02 104.915 66.2533 105.715 65.68C106.515 65.0933 107.589 64.8 108.935 64.8C109.642 64.8 110.349 64.8867 111.055 65.06C111.762 65.2333 112.342 65.4667 112.795 65.76L111.975 67.28C111.109 66.72 110.089 66.44 108.915 66.44C108.102 66.44 107.482 66.5733 107.055 66.84C106.629 67.1067 106.415 67.46 106.415 67.9C106.415 68.2467 106.535 68.52 106.775 68.72C107.015 68.92 107.309 69.0667 107.655 69.16C108.015 69.2533 108.515 69.36 109.155 69.48C110.009 69.6267 110.695 69.7867 111.215 69.96C111.749 70.12 112.202 70.4 112.575 70.8C112.949 71.2 113.135 71.76 113.135 72.48C113.135 73.44 112.722 74.2067 111.895 74.78C111.082 75.34 109.969 75.62 108.555 75.62ZM118.575 75.62C117.708 75.62 116.875 75.5067 116.075 75.28C115.275 75.04 114.648 74.74 114.195 74.38L114.995 72.86C115.462 73.1933 116.028 73.46 116.695 73.66C117.362 73.86 118.035 73.96 118.715 73.96C120.395 73.96 121.235 73.48 121.235 72.52C121.235 72.2 121.122 71.9467 120.895 71.76C120.668 71.5733 120.382 71.44 120.035 71.36C119.702 71.2667 119.222 71.1667 118.595 71.06C117.742 70.9267 117.042 70.7733 116.495 70.6C115.962 70.4267 115.502 70.1333 115.115 69.72C114.728 69.3067 114.535 68.7267 114.535 67.98C114.535 67.02 114.935 66.2533 115.735 65.68C116.535 65.0933 117.608 64.8 118.955 64.8C119.662 64.8 120.368 64.8867 121.075 65.06C121.782 65.2333 122.362 65.4667 122.815 65.76L121.995 67.28C121.128 66.72 120.108 66.44 118.935 66.44C118.122 66.44 117.502 66.5733 117.075 66.84C116.648 67.1067 116.435 67.46 116.435 67.9C116.435 68.2467 116.555 68.52 116.795 68.72C117.035 68.92 117.328 69.0667 117.675 69.16C118.035 69.2533 118.535 69.36 119.175 69.48C120.028 69.6267 120.715 69.7867 121.235 69.96C121.768 70.12 122.222 70.4 122.595 70.8C122.968 71.2 123.155 71.76 123.155 72.48C123.155 73.44 122.742 74.2067 121.915 74.78C121.102 75.34 119.988 75.62 118.575 75.62Z" fill="#29292B"/>
</svg>
